<?xml version="1.0" encoding="UTF-8"?>
<svg id="teilogo" xmlns="http://www.w3.org/2000/svg" fill="#000" viewBox="0 0 800 800" width="800" height="800" version="1.1">
<!--
<rect x="0" y="0" width="800" height="800" rx="20" ry="20" fill="none" stroke="#000" stroke-width="1"/>
-->
<g transform="translate(-90,-54) scale(1.22)">
 <path fill="#c9b23e" d="m418 62 36 65 190.3 114.4-0.7 217.2 35.4 64.4v-269l-28.1-48.7z"/>
 <path fill="#f3d448" d="m418 62 33-19 234 143-34 19z"/>
 <path fill="#ffe14d" d="m713 237-28-51-34 19 28 49z"/>
 <path fill="#e5c944" d="m713 504v-267l-34 17v269z"/>
 <path d="m199 281h146.5v44.2h-49.1v134.8h-48.2v-134.8h-49.2v-44.2z"/>
 <path d="m368 281h129.3v38.2h-80.9v28.5h75.1v36.5h-75.1v35.3h83.3v40.5h-131.7v-179z"/>
 <path d="m527 281h52.3v179h-52.3v-179z"/>
 <path fill="#c9b23e" d="m86 243v269l29 50 233 142-36-64-190-116v-217z"/>
 <path fill="#ffe14d" d="m119 224 36 66-33 17-36-64z"/>
 <path fill="#e5c944" d="m155 506v-216l-33 17v217z"/>
 <path fill="#f3d448" d="m345 620-190-114-33 18 190 116z"/>
 <path fill="#ffe14d" d="m381 684-36-64-33 20 36 64z"/>
 <!--
 <path d="m369.3 736.1 15.8-9v5.8l-5.3 3v17.9l-5.1 3v-17.9l-5.3 3z"/>
 <path d="m387.5 725.8 13.7-8.1v5.1l-8.6 5v3.8l8.1-4.7v4.9l-8.1 4.5 0.2 4.7 8.8-5.1v5.3l-14.1 8.3z"/>
 <path d="m414.8 710 5.6-3.2-5.3 14.5 5.9 8.8-5.9 3.4-3.4-5.7-3.1 9.4-5.9 3.4 5.9-15.6-5.5-8.4 5.8-3.2 3 5.6z"/>
 <path d="m421.3 706.2 15.8-9.2v5.8l-5.2 3.1v18l-5.3 2.8v-17.8l-5.3 3.2z"/>
 <path d="m447.3 691.2 13.7-7.9v4.9l-8.6 5.1v3.7l8-4.7v4.9l-8 4.7 0.1 4.7 8.9-5.3v5.5l-14.1 8.1z"/>
 <path d="m469.1 689.3v13l-4.9 2.8v-23.7l4.9-2.8 6.2 9.6v-13.2l4.9-2.8v23.7l-4.9 2.8z"/>
 <path d="m491.6 665.4c2.1-1.2 3.8-1.6 4.9-1.1 1.3 0.5 2.3 1.9 2.8 4l-4.7 4.1c0-0.6-0.2-1-0.3-1.3-0.4-0.4-0.8-0.6-1.2-0.7-0.3 0-0.9 0.1-1.3 0.4-1.1 0.6-2.1 1.8-2.6 3.5-0.6 1.3-0.8 3-0.8 5.1 0 2.6 0.2 4.2 0.8 4.9 0.5 0.6 1.5 0.7 2.4 0.1 1-0.6 1.7-1.4 2.3-2.5 0.5-1.1 0.7-2.4 1.1-4l4.5-0.7c-0.4 2-0.7 3.7-1.5 5.3-0.5 1.6-1.3 3-2.4 4.2-1 1.1-2.1 2.2-3.6 3-1.9 1.1-3.4 1.6-4.5 1.5s-2.1-0.8-3-2.3c-0.8-1.3-1.3-3.5-1.3-6.5 0-3.9 0.7-7.3 2.2-10.3 1.5-2.9 3.6-5.2 6.2-6.7z"/>
 <path d="m516.4 654.3c1.5 1.2 2.3 3.7 2.3 7.6 0 2.7-0.4 5.2-0.9 7.3-0.8 2.2-1.7 4.1-2.9 5.8-1.3 1.7-2.8 3.1-4.7 4.2-1.8 1.1-3.3 1.5-4.7 1.4-1.3-0.1-2.2-0.9-3-2.3-0.7-1.4-1.1-3.5-1.1-6.3 0-3.8 0.8-7.2 2.3-10.3 1.5-3 3.5-5.3 6.2-6.9 2.8-1.6 5-1.8 6.5-0.5zm-3.7 16.5c0.5-1.4 0.7-3.4 0.7-6 0-2.3-0.2-3.7-0.9-4.4-0.6-0.7-1.5-0.7-2.6 0-1 0.6-1.7 1.6-2.5 3-0.5 1.4-0.9 3.3-0.9 5.7s0.4 3.9 0.9 4.6c0.8 0.7 1.5 0.7 2.7 0.1 1.1-0.6 1.8-1.6 2.6-3"/>
 <path d="m536.6 647c0.2 1.3 0.3 2.8 0.3 4.4 0 2.5-0.1 4.6-0.5 6.2-0.4 1.7-1 3.2-1.7 4.5-0.8 1.4-1.5 2.5-2.3 3.3-1.1 1-2.2 1.9-3.2 2.4l-7.5 4.4-0.2-23.7 7.7-4.4c1.5-0.9 2.9-1.3 3.6-1.3 0.9 0.1 1.9 0.5 2.4 1.2 0.6 0.7 1 1.7 1.4 3zm-5.3 11.9c0.4-1 0.4-2.4 0.4-4.3 0-2.6-0.2-4.1-0.8-4.7-0.5-0.6-1.5-0.5-2.8 0.2l-1.3 0.8v13l1.3-0.8c0.9-0.6 1.7-1.2 2.3-1.8 0.3-0.6 0.7-1.4 0.9-2.4"/>
 <path d="m610.2 784.2 2.7-1.6 0.1 12.6-2.8 1.6z" transform="matrix(1.88 0 0 1.88 -607.4 -836.5)"/>
 <path d="m617.5 785.6 0.1 7-2.6 1.5-0.1-12.7 2.6-1.4 3.4 5-0.1-7 2.6-1.5 0.1 12.7-2.6 1.4z" transform="matrix(1.88 0 0 1.88 -607.4 -836.5)"/>
 <path d="m576.6 616.3c1.9-1.1 3.2-1.6 4.1-1.7 1 0 1.7 0.3 2.3 0.9 0.8 0.6 1.1 1.7 1.5 3l-5.1 4.1c-0.2-0.7-0.5-1.2-0.9-1.4-0.6-0.2-1.1 0-1.9 0.4-1.1 0.6-2.1 1.7-2.8 3.2-0.6 1.5-0.9 3.5-0.9 5.9 0 2.6 0.3 4.2 0.9 4.9 0.7 0.7 1.7 0.7 3 0 0.6-0.3 1.1-0.8 1.5-1.3 0.6-0.5 1.1-1.3 1.9-2.2v-2.3l-3.6 2v-4.9l8.1-4.6v10.1c-1.5 2.3-2.8 4.1-4 5.3-1.3 1.2-2.6 2.3-4.3 3.2-1.9 1.2-3.5 1.6-4.7 1.4-1.3-0.3-2.2-1.1-3-2.6-0.7-1.5-0.9-3.5-0.9-6-0.2-2.5 0.2-5 0.9-7.3 0.8-2.4 1.9-4.5 3.4-6.3 1.1-1.4 2.6-2.7 4.5-3.8z"/>
 <path d="m595.6 605.5 5.1-3 0.2 23.8-5.3 2.8z"/>
 <path d="m609.5 608.3v13l-4.9 2.8-0.2-23.7 4.9-2.8 6.4 9.4v-13l4.9-2.8v23.7l-4.9 2.8z"/>
 <path d="m624.2 588.9 5.1-2.8 0.2 23.7-5.3 3z"/>
 <path d="m631.9 584.6 15.8-9.2v6l-5.3 3v17.9l-5.2 3v-17.9l-5.3 3z"/>
 <path d="m650.1 574.1 5.3-3v23.6l-5.1 3.1z"/>
 <path d="m674.4 560 15.8-9.1v5.9l-5.3 3v17.8l-5.1 3v-17.8l-5.4 3z"/>
 <path d="m669.5 563.1 6.4 20-5.5 3.2-0.7-3.5-6 3.4-0.8 4.4-5.3 3.1 6.3-27.4 5.6-3.2zm-4.7 17.3 3.8-2.1-1.9-7.4-1.9 9.5"/>
 <path d="m692.8 549.4 5.1-3 0.2 23.7-5.3 3z"/>
 <path d="m706.3 565.2-6.3-19.9 5.4-3.2 4 14.9 3.5-19.2 5.3-3-6.2 27.2z"/>
 <path d="m719.9 533.8 13.9-8.1v5.1l-8.7 5.1v3.8l7.9-4.7v4.8l-7.9 4.6v4.7l8.9-5.1v5.4l-14.1 8.1z"/>
 -->
 </g>
</svg>
