<?xml version="1.0" encoding="utf-8"?>
<svg viewBox="0 0 90 90"  xmlns="http://www.w3.org/2000/svg">
  <style>
#page {
    fill: #e9e9e0;
}
#corner {
    fill: #d9d7ca;
}
#mdown {
  fill:#fff;
}
#cartouche {
  fill: #3c5798;
}
.line {
	stroke-width: 2px;
	stroke: #000;
}
  </style>
  <path id="page" d="M 50,0 H 25 C 20,0 15,5 15,10 v 70 c 0,5 5,10 10,10 h 40 c 5,0 10,-5 10,-10 V 25 L 50,0 c 0,0 -1,-2 0,0.21 z"/>
  <path id="corner" d="M50 0v25h25z"/>
  <path id="cartouche" d="M 65,90 H 25 C 20,90 15,85 15,80 V 65 h 60 v 15 c 0,5 -5,10 -10,10 z"/>
  <line class="line" x1="20" y1="35" x2="70" y2="35"/>
  <line class="line" x1="20" y1="40" x2="70" y2="40"/>
  <line class="line" x1="20" y1="45" x2="70" y2="45"/>
  <line class="line" x1="20" y1="50" x2="70" y2="50"/>
  <line class="line" x1="20" y1="55" x2="70" y2="55"/>
  <path fill="#fff" d="M 32.123 77.078 Q 32.123 80.336 30.269 81.983 Q 28.415 83.63 25.103 83.63 L 21.467 83.63 L 21.467 70.778 L 25.499 70.778 Q 27.515 70.778 29 71.498 Q 30.485 72.218 31.304 73.622 Q 32.123 75.026 32.123 77.078 Z M 29.297 77.15 Q 29.297 75.026 28.361 74.018 Q 27.425 73.01 25.643 73.01 L 24.185 73.01 L 24.185 81.38 L 25.355 81.38 Q 29.297 81.38 29.297 77.15 Z M 46.45 77.186 Q 46.45 79.184 45.793 80.669 Q 45.136 82.154 43.777 82.982 Q 42.418 83.81 40.33 83.81 Q 38.242 83.81 36.883 82.982 Q 35.524 82.154 34.867 80.66 Q 34.21 79.166 34.21 77.168 Q 34.21 75.17 34.867 73.694 Q 35.524 72.218 36.883 71.399 Q 38.242 70.58 40.348 70.58 Q 42.436 70.58 43.786 71.399 Q 45.136 72.218 45.793 73.703 Q 46.45 75.188 46.45 77.186 Z M 37.072 77.186 Q 37.072 79.202 37.846 80.363 Q 38.62 81.524 40.33 81.524 Q 42.076 81.524 42.832 80.363 Q 43.588 79.202 43.588 77.186 Q 43.588 75.17 42.832 74.009 Q 42.076 72.848 40.348 72.848 Q 38.62 72.848 37.846 74.009 Q 37.072 75.17 37.072 77.186 Z M 54.567 72.866 Q 53.001 72.866 52.173 74.036 Q 51.345 75.206 51.345 77.24 Q 51.345 79.292 52.11 80.417 Q 52.875 81.542 54.567 81.542 Q 55.341 81.542 56.133 81.362 Q 56.925 81.182 57.843 80.858 L 57.843 83.144 Q 56.997 83.486 56.169 83.648 Q 55.341 83.81 54.315 83.81 Q 52.317 83.81 51.039 82.991 Q 49.761 82.172 49.149 80.687 Q 48.537 79.202 48.537 77.222 Q 48.537 75.278 49.239 73.784 Q 49.941 72.29 51.282 71.444 Q 52.623 70.598 54.567 70.598 Q 55.521 70.598 56.484 70.841 Q 57.447 71.084 58.329 71.498 L 57.447 73.712 Q 56.727 73.37 55.998 73.118 Q 55.269 72.866 54.567 72.866 Z M 70.964 83.63 L 67.85 83.63 L 64.862 78.77 L 61.874 83.63 L 58.958 83.63 L 63.224 77.006 L 59.228 70.778 L 62.234 70.778 L 65.006 75.404 L 67.724 70.778 L 70.658 70.778 L 66.626 77.15 Z"/>
</svg>
