<svg xmlns="http://www.w3.org/2000/svg" xmlns:xhtml="http://www.w3.org/1999/xhtml" viewBox="0 0 90 90">
  <style>
#page {
    fill: #e9e9e0;
}
#corner {
    fill: #d9d7ca;
}
#cartouche {
  fill: #ec6630;
}
.segment {
    stroke-width:3;
    fill:none;
    stroke-linecap:round;
    stroke-linejoin:round;
    stroke-opacity:1;
}

  </style>
  <path id="page" d="M 50,0 H 25 C 20,0 15,5 15,10 v 70 c 0,5 5,10 10,10 h 40 c 5,0 10,-5 10,-10 V 25 L 50,0 c 0,0 -1,-2 0,0.21 z"/>
  <path id="corner" d="M50 0v25h25z"/>
  <path id="cartouche" d="M 65,90 H 25 C 20,90 15,85 15,80 V 65 h 60 v 15 c 0,5 -5,10 -10,10 z"/>
  
<path id="html" fill="#fff" d="M 31.961 83.434 L 29.394 83.434 L 29.394 78.198 L 24.583 78.198 L 24.583 83.434 L 22.016 83.434 L 22.016 71.296 L 24.583 71.296 L 24.583 76.056 L 29.394 76.056 L 29.394 71.296 L 31.961 71.296 Z M 39.691 83.434 L 37.124 83.434 L 37.124 73.438 L 33.826 73.438 L 33.826 71.296 L 42.989 71.296 L 42.989 73.438 L 39.691 73.438 Z M 49.997 83.434 L 47.073 73.914 L 47.005 73.914 Q 47.022 74.254 47.056 74.934 Q 47.09 75.614 47.124 76.396 Q 47.158 77.178 47.158 77.79 L 47.158 83.434 L 44.863 83.434 L 44.863 71.296 L 48.365 71.296 L 51.238 80.578 L 51.289 80.578 L 54.332 71.296 L 57.834 71.296 L 57.834 83.434 L 55.437 83.434 L 55.437 77.688 Q 55.437 77.11 55.463 76.362 Q 55.488 75.614 55.514 74.942 Q 55.539 74.271 55.556 73.931 L 55.488 73.931 L 52.36 83.434 Z M 60.891 83.434 L 60.891 71.296 L 63.458 71.296 L 63.458 81.309 L 68.388 81.309 L 68.388 83.434 Z"/>

  <path stroke="#ec6630" class="segment" d="M 35,35 25,45 35,55"/>
  <path stroke="#ec6630" class="segment" d="M 55,35 65,45 55,55"/>
</svg>