<?xml version="1.0" encoding="utf-8"?>
<svg viewBox="0 0 90 90"  xmlns="http://www.w3.org/2000/svg">
  <style>
#page {
    fill: #e9e9e0;
}
#corner {
    fill: #d9d7ca;
}
#mdown {
  fill:#fff;
}
  </style>
  <path id="page" d="M 50,0 H 25 C 20,0 15,5 15,10 v 70 c 0,5 5,10 10,10 h 40 c 5,0 10,-5 10,-10 V 25 L 50,0 c 0,0 -1,-2 0,0.21 z"/>
  <path id="corner" d="M50 0v25h25z"/>
  <path id="cartouche" d="M 65,90 H 25 C 20,90 15,85 15,80 V 65 h 60 v 15 c 0,5 -5,10 -10,10 z"/>
  
  <path id="mdown" d="M 25.885 86 L 25.885 70.345 L 30.12 70.345 L 35.414 76.215 L 40.707 70.345 L 44.942 70.345 L 44.942 86 L 40.707 86 L 40.707 76.215 L 35.414 83.065 L 30.12 76.215 L 30.12 86 L 25.885 86 Z M 55.53 86 L 47.06 78.172 L 52.354 78.172 L 52.354 70.345 L 58.706 70.345 L 58.706 78.172 L 64 78.172 L 55.53 86 Z"/>


  <path  id="_txt_" d="M 30.293 51.644 C 30.293 51.972 30.258 52.213 30.19 52.363 C 30.123 52.513 30.016 52.588 29.871 52.588 L 17.605 52.588 C 17.462 52.588 17.351 52.517 17.275 52.375 C 17.196 52.236 17.158 52 17.158 51.673 C 17.158 51.356 17.196 51.116 17.275 50.956 C 17.351 50.8 17.462 50.72 17.605 50.72 L 29.871 50.72 C 30.008 50.72 30.112 50.796 30.185 50.944 C 30.258 51.093 30.293 51.328 30.293 51.644 Z M 39.279 34.608 C 39.279 34.691 39.274 34.782 39.264 34.882 C 39.256 34.979 39.24 35.079 39.214 35.184 C 39.19 35.287 39.154 35.389 39.113 35.491 C 39.07 35.596 39.026 35.687 38.982 35.766 C 38.933 35.845 38.88 35.909 38.82 35.957 C 38.76 36.001 38.692 36.025 38.617 36.025 L 35.687 36.025 L 34.399 43.077 C 34.365 43.274 34.337 43.495 34.31 43.737 C 34.285 43.982 34.274 44.183 34.274 44.342 C 34.274 44.818 34.364 45.168 34.545 45.387 C 34.728 45.607 35.023 45.718 35.431 45.718 C 35.66 45.718 35.862 45.696 36.031 45.655 C 36.199 45.61 36.347 45.568 36.471 45.521 C 36.593 45.475 36.702 45.431 36.794 45.387 C 36.889 45.348 36.969 45.326 37.036 45.326 C 37.104 45.326 37.158 45.35 37.196 45.399 C 37.233 45.452 37.255 45.551 37.255 45.691 C 37.255 45.81 37.242 45.945 37.222 46.089 C 37.201 46.235 37.172 46.377 37.139 46.517 C 37.104 46.659 37.063 46.788 37.011 46.9 C 36.961 47.01 36.905 47.099 36.845 47.165 C 36.777 47.233 36.676 47.297 36.54 47.362 C 36.406 47.424 36.247 47.485 36.068 47.536 C 35.889 47.589 35.7 47.628 35.502 47.656 C 35.301 47.685 35.105 47.699 34.911 47.699 C 34.434 47.699 34.024 47.642 33.673 47.529 C 33.324 47.416 33.032 47.241 32.795 47.002 C 32.556 46.764 32.381 46.464 32.266 46.103 C 32.153 45.743 32.094 45.311 32.094 44.803 C 32.094 44.694 32.098 44.569 32.107 44.433 C 32.116 44.295 32.13 44.152 32.152 44.005 L 32.216 43.554 C 32.237 43.403 32.261 43.266 32.285 43.133 L 33.57 36.025 L 31.981 36.025 C 31.885 36.025 31.813 35.995 31.763 35.935 C 31.712 35.874 31.687 35.754 31.687 35.576 C 31.687 35.444 31.699 35.294 31.725 35.119 C 31.752 34.945 31.79 34.783 31.84 34.633 C 31.891 34.484 31.957 34.358 32.036 34.256 C 32.117 34.151 32.215 34.099 32.323 34.099 L 33.928 34.099 L 34.477 31.093 C 34.485 31.029 34.514 30.969 34.559 30.911 C 34.605 30.857 34.672 30.808 34.758 30.765 C 34.842 30.724 34.956 30.694 35.094 30.673 C 35.234 30.653 35.405 30.645 35.611 30.645 C 35.815 30.645 35.983 30.653 36.113 30.673 C 36.245 30.694 36.347 30.724 36.417 30.765 C 36.491 30.808 36.538 30.857 36.558 30.911 C 36.581 30.969 36.586 31.029 36.578 31.093 L 36.031 34.099 L 38.96 34.099 C 39.088 34.099 39.173 34.151 39.214 34.256 C 39.256 34.358 39.279 34.473 39.279 34.608 Z M 46.038 40.661 L 48.536 46.842 C 48.584 46.971 48.606 47.083 48.594 47.171 C 48.58 47.26 48.527 47.334 48.434 47.389 C 48.339 47.446 48.211 47.485 48.046 47.507 C 47.879 47.532 47.664 47.545 47.4 47.545 C 47.163 47.545 46.976 47.536 46.84 47.522 C 46.705 47.507 46.599 47.485 46.522 47.451 C 46.446 47.418 46.396 47.377 46.369 47.328 C 46.342 47.274 46.319 47.216 46.293 47.151 L 44.382 42.164 L 40.778 47.151 C 40.728 47.216 40.674 47.274 40.618 47.328 C 40.564 47.377 40.483 47.417 40.381 47.446 C 40.283 47.475 40.15 47.497 39.994 47.514 C 39.836 47.534 39.632 47.545 39.375 47.545 C 39.132 47.545 38.931 47.532 38.778 47.507 C 38.625 47.485 38.512 47.446 38.44 47.389 C 38.368 47.334 38.338 47.264 38.35 47.178 C 38.365 47.093 38.413 46.987 38.498 46.854 L 43.261 40.619 L 40.906 34.719 C 40.855 34.587 40.833 34.478 40.841 34.39 C 40.851 34.299 40.894 34.227 40.977 34.17 C 41.055 34.114 41.177 34.079 41.339 34.058 C 41.498 34.039 41.711 34.029 41.976 34.029 C 42.214 34.029 42.4 34.035 42.537 34.052 C 42.672 34.066 42.777 34.087 42.848 34.114 C 42.919 34.144 42.97 34.182 43 34.227 C 43.031 34.274 43.056 34.331 43.085 34.395 L 44.904 39.115 L 48.344 34.395 C 48.394 34.338 48.446 34.29 48.497 34.24 C 48.549 34.195 48.62 34.154 48.714 34.122 C 48.808 34.091 48.924 34.066 49.064 34.052 C 49.204 34.035 49.389 34.029 49.617 34.029 C 49.872 34.029 50.08 34.039 50.241 34.058 C 50.405 34.079 50.524 34.111 50.599 34.156 C 50.675 34.204 50.709 34.273 50.694 34.361 C 50.684 34.448 50.62 34.559 50.509 34.689 L 46.038 40.661 Z M 59.354 34.608 C 59.354 34.691 59.349 34.782 59.342 34.882 C 59.335 34.979 59.316 35.079 59.292 35.184 C 59.264 35.287 59.232 35.389 59.188 35.491 C 59.146 35.596 59.102 35.687 59.055 35.766 C 59.008 35.845 58.955 35.909 58.898 35.957 C 58.838 36.001 58.769 36.025 58.693 36.025 L 55.764 36.025 L 54.477 43.077 C 54.441 43.274 54.412 43.495 54.387 43.737 C 54.359 43.982 54.347 44.183 54.347 44.342 C 54.347 44.818 54.439 45.168 54.623 45.387 C 54.806 45.607 55.098 45.718 55.507 45.718 C 55.739 45.718 55.936 45.696 56.106 45.655 C 56.275 45.61 56.422 45.568 56.546 45.521 C 56.67 45.475 56.776 45.431 56.869 45.387 C 56.964 45.348 57.045 45.326 57.113 45.326 C 57.18 45.326 57.234 45.35 57.27 45.399 C 57.31 45.452 57.33 45.551 57.33 45.691 C 57.33 45.81 57.318 45.945 57.299 46.089 C 57.275 46.235 57.25 46.377 57.213 46.517 C 57.18 46.659 57.137 46.788 57.088 46.9 C 57.036 47.01 56.982 47.099 56.923 47.165 C 56.855 47.233 56.751 47.297 56.617 47.362 C 56.48 47.424 56.323 47.485 56.144 47.536 C 55.965 47.589 55.776 47.628 55.577 47.656 C 55.378 47.685 55.181 47.699 54.984 47.699 C 54.51 47.699 54.098 47.642 53.75 47.529 C 53.403 47.416 53.108 47.241 52.87 47.002 C 52.633 46.764 52.456 46.464 52.342 46.103 C 52.227 45.743 52.171 45.311 52.171 44.803 C 52.171 44.694 52.174 44.569 52.181 44.433 C 52.19 44.295 52.206 44.152 52.227 44.005 L 52.292 43.554 C 52.311 43.403 52.335 43.266 52.361 43.133 L 53.648 36.025 L 52.054 36.025 C 51.962 36.025 51.89 35.995 51.838 35.935 C 51.788 35.874 51.763 35.754 51.763 35.576 C 51.763 35.444 51.778 35.294 51.801 35.119 C 51.826 34.945 51.864 34.783 51.916 34.633 C 51.966 34.484 52.031 34.358 52.112 34.256 C 52.195 34.151 52.288 34.099 52.399 34.099 L 54.006 34.099 L 54.55 31.093 C 54.561 31.029 54.587 30.969 54.634 30.911 C 54.682 30.857 54.748 30.808 54.832 30.765 C 54.915 30.724 55.029 30.694 55.17 30.673 C 55.31 30.653 55.482 30.645 55.686 30.645 C 55.889 30.645 56.057 30.653 56.188 30.673 C 56.32 30.694 56.422 30.724 56.495 30.765 C 56.565 30.808 56.613 30.857 56.636 30.911 C 56.655 30.969 56.661 31.029 56.654 31.093 L 56.106 34.099 L 59.036 34.099 C 59.164 34.099 59.248 34.151 59.292 34.256 C 59.335 34.358 59.354 34.473 59.354 34.608 Z M 72.108 51.644 C 72.108 51.972 72.075 52.213 72.007 52.363 C 71.938 52.513 71.833 52.588 71.689 52.588 L 59.422 52.588 C 59.277 52.588 59.167 52.517 59.091 52.375 C 59.012 52.236 58.975 52 58.975 51.673 C 58.975 51.356 59.012 51.116 59.091 50.956 C 59.167 50.8 59.277 50.72 59.422 50.72 L 71.689 50.72 C 71.824 50.72 71.928 50.796 72 50.944 C 72.074 51.093 72.108 51.328 72.108 51.644 Z" style="stroke-linecap: round; stroke-linejoin: round; stroke-opacity: 0.48; white-space: pre;"/>

  
</svg>