<?xml version="1.0" encoding="UTF-8"?><svg xmlns="http://www.w3.org/2000/svg" xmlns:xlink="http://www.w3.org/1999/xlink" fill-opacity="1" color-rendering="auto" color-interpolation="auto" text-rendering="auto" stroke="black" stroke-linecap="square" width="260" stroke-miterlimit="10" shape-rendering="auto" stroke-opacity="1" fill="black" stroke-dasharray="none" font-weight="normal" stroke-width="1" height="154" font-family="'Dialog'" font-style="normal" stroke-linejoin="miter" font-size="12px" stroke-dashoffset="0" image-rendering="auto">
  <!--Generated by ySVG 2.6-->
  <defs id="genericDefs"/>
  <g>
    <defs id="defs1">
      <clipPath clipPathUnits="userSpaceOnUse" id="clipPath1">
        <path d="M0 0 L260 0 L260 154 L0 154 L0 0 Z"/>
      </clipPath>
      <clipPath clipPathUnits="userSpaceOnUse" id="clipPath2">
        <path d="M190 83 L450 83 L450 237 L190 237 L190 83 Z"/>
      </clipPath>
    </defs>
    <g fill="white" text-rendering="geometricPrecision" shape-rendering="geometricPrecision" transform="matrix(1,0,0,1,-190,-83)" stroke="white">
      <rect x="205" width="50" height="20" y="140" clip-path="url(#clipPath2)" stroke="none"/>
    </g>
    <g stroke-linecap="butt" transform="matrix(1,0,0,1,-190,-83)" fill="rgb(238,238,238)" text-rendering="geometricPrecision" shape-rendering="geometricPrecision" stroke="rgb(238,238,238)" stroke-miterlimit="1.45">
      <rect fill="none" x="205" width="50" height="20" y="140" clip-path="url(#clipPath2)"/>
    </g>
    <g font-size="16px" stroke-linecap="butt" transform="matrix(1,0,0,1,-190,-83)" text-rendering="geometricPrecision" font-family="'DejaVu Sans'" shape-rendering="geometricPrecision" font-weight="bold" stroke-miterlimit="1.45">
      <text x="208.875" xml:space="preserve" y="155.5391" clip-path="url(#clipPath2)" stroke="none">docx</text>
    </g>
    <g fill="white" text-rendering="geometricPrecision" shape-rendering="geometricPrecision" transform="matrix(1,0,0,1,-190,-83)" stroke="white">
      <rect x="385" width="50" height="20" y="100" clip-path="url(#clipPath2)" stroke="none"/>
    </g>
    <g stroke-linecap="butt" transform="matrix(1,0,0,1,-190,-83)" fill="rgb(238,238,238)" text-rendering="geometricPrecision" shape-rendering="geometricPrecision" stroke="rgb(238,238,238)" stroke-miterlimit="1.45">
      <rect fill="none" x="385" width="50" height="20" y="100" clip-path="url(#clipPath2)"/>
    </g>
    <g font-size="16px" stroke-linecap="butt" transform="matrix(1,0,0,1,-190,-83)" text-rendering="geometricPrecision" font-family="'DejaVu Sans'" shape-rendering="geometricPrecision" font-weight="bold" stroke-miterlimit="1.45">
      <text x="387.4258" xml:space="preserve" y="115.5391" clip-path="url(#clipPath2)" stroke="none">epub</text>
    </g>
    <g fill="white" text-rendering="geometricPrecision" shape-rendering="geometricPrecision" transform="matrix(1,0,0,1,-190,-83)" stroke="white">
      <rect x="385" width="50" height="20" y="180" clip-path="url(#clipPath2)" stroke="none"/>
    </g>
    <g stroke-linecap="butt" transform="matrix(1,0,0,1,-190,-83)" fill="rgb(238,238,238)" text-rendering="geometricPrecision" shape-rendering="geometricPrecision" stroke="rgb(238,238,238)" stroke-miterlimit="1.45">
      <rect fill="none" x="385" width="50" height="20" y="180" clip-path="url(#clipPath2)"/>
    </g>
    <g font-size="16px" stroke-linecap="butt" transform="matrix(1,0,0,1,-190,-83)" text-rendering="geometricPrecision" font-family="'DejaVu Sans'" shape-rendering="geometricPrecision" font-weight="bold" stroke-miterlimit="1.45">
      <text x="389.4023" xml:space="preserve" y="195.5391" clip-path="url(#clipPath2)" stroke="none">html</text>
    </g>
    <g fill="white" text-rendering="geometricPrecision" shape-rendering="geometricPrecision" transform="matrix(1,0,0,1,-190,-83)" stroke="white">
      <rect x="295" width="50" height="20" y="200" clip-path="url(#clipPath2)" stroke="none"/>
    </g>
    <g stroke-linecap="butt" transform="matrix(1,0,0,1,-190,-83)" fill="rgb(238,238,238)" text-rendering="geometricPrecision" shape-rendering="geometricPrecision" stroke="rgb(238,238,238)" stroke-miterlimit="1.45">
      <rect fill="none" x="295" width="50" height="20" y="200" clip-path="url(#clipPath2)"/>
    </g>
    <g font-size="16px" stroke-linecap="butt" transform="matrix(1,0,0,1,-190,-83)" text-rendering="geometricPrecision" font-family="'DejaVu Sans'" shape-rendering="geometricPrecision" font-weight="bold" stroke-miterlimit="1.45">
      <text x="307.1914" xml:space="preserve" y="215.5391" clip-path="url(#clipPath2)" stroke="none">txt</text>
    </g>
    <g fill="white" text-rendering="geometricPrecision" shape-rendering="geometricPrecision" transform="matrix(1,0,0,1,-190,-83)" stroke="white">
      <rect x="295" width="50" height="20" y="140" clip-path="url(#clipPath2)" stroke="none"/>
    </g>
    <g stroke-linecap="butt" transform="matrix(1,0,0,1,-190,-83)" fill="rgb(238,238,238)" text-rendering="geometricPrecision" shape-rendering="geometricPrecision" stroke="rgb(238,238,238)" stroke-miterlimit="1.45">
      <rect fill="none" x="295" width="50" height="20" y="140" clip-path="url(#clipPath2)"/>
    </g>
    <g font-size="16px" stroke-linecap="butt" transform="matrix(1,0,0,1,-190,-83)" text-rendering="geometricPrecision" font-family="'DejaVu Sans'" shape-rendering="geometricPrecision" font-weight="bold" stroke-miterlimit="1.45">
      <text x="308.0078" xml:space="preserve" y="155.5391" clip-path="url(#clipPath2)" stroke="none">tei</text>
    </g>
    <g stroke-linecap="butt" transform="matrix(1,0,0,1,-190,-83)" fill="rgb(136,136,136)" text-rendering="geometricPrecision" shape-rendering="geometricPrecision" stroke="rgb(136,136,136)" stroke-width="5" stroke-miterlimit="1.45">
      <path fill="none" d="M410 120 L410 168" clip-path="url(#clipPath2)"/>
      <path d="M410 180 L417.5 162 L410 166.5 L402.5 162 Z" clip-path="url(#clipPath2)" stroke="none"/>
      <path fill="none" d="M345 210 L353.7387 212.7392 L362.3021 214.3387 L370.6901 214.7984 L378.9028 214.1183 L386.9401 212.2984 L394.8021 209.3387 L399.9674 206.5839 L400.0495 206.5267" clip-path="url(#clipPath2)"/>
      <path d="M410.0836 199.9452 L390.9189 203.5461 L398.7952 207.3494 L399.1459 216.0888 Z" clip-path="url(#clipPath2)" stroke="none"/>
      <path fill="none" d="M255 150 L283 150" clip-path="url(#clipPath2)"/>
      <path d="M295 150 L277 142.5 L281.5 150 L277 157.5 Z" clip-path="url(#clipPath2)" stroke="none"/>
      <path fill="none" d="M385.022 102.7431 L384.5919 102.6576 L373.295 102.6972 L362.9364 105.2107 L353.516 110.1981 L345.0338 117.6593 L337.4897 127.5945 L336.5356 129.3867" clip-path="url(#clipPath2)"/>
      <path d="M330.8967 139.9793 L345.9754 127.6148 L337.2405 128.0627 L332.7347 120.5661 Z" clip-path="url(#clipPath2)" stroke="none"/>
      <path fill="none" d="M385.0355 197.1126 L384.5076 197.2149 L373.144 197.1432 L362.7021 194.6187 L353.1821 189.6414 L344.5838 182.2114 L336.9073 172.3286 L335.9292 170.5424" clip-path="url(#clipPath2)"/>
      <path d="M330.1656 160.0171 L332.2326 179.4073 L336.6496 171.8581 L345.3892 172.2029 Z" clip-path="url(#clipPath2)" stroke="none"/>
      <path fill="none" d="M308.5782 140.0043 L306.1516 137.0444 L296.2083 128.3393 L285.9531 122.6766 L275.3861 120.0564 L264.5073 120.4786 L253.3167 123.9433 L241.8143 130.4504 L239.3555 132.4378" clip-path="url(#clipPath2)"/>
      <path d="M230.0231 139.9814 L248.7365 134.4989 L240.5221 131.4949 L239.3071 122.8333 Z" clip-path="url(#clipPath2)" stroke="none"/>
      <path fill="none" d="M345 150 L375.3885 127.1863" clip-path="url(#clipPath2)"/>
      <path d="M384.9851 119.9818 L366.0874 124.7907 L374.1889 128.0869 L375.093 136.7865 Z" clip-path="url(#clipPath2)" stroke="none"/>
      <path fill="none" d="M320 160 L320 188" clip-path="url(#clipPath2)"/>
      <path d="M320 200 L327.5 182 L320 186.5 L312.5 182 Z" clip-path="url(#clipPath2)" stroke="none"/>
      <path fill="none" d="M345 150 L375.6945 172.8139" clip-path="url(#clipPath2)"/>
      <path d="M385.3256 179.9722 L375.3529 163.2153 L374.4906 171.9191 L366.405 175.2541 Z" clip-path="url(#clipPath2)" stroke="none"/>
    </g>
  </g>
</svg>
