<?xml version="1.0" encoding="UTF-8" standalone="no"?>
<svg id="svg4638" xmlns:rdf="http://www.w3.org/1999/02/22-rdf-syntax-ns#" xmlns="http://www.w3.org/2000/svg" height="124" viewBox="0 0 1206 124" width="1206" version="1.1" xmlns:cc="http://creativecommons.org/ns#" xmlns:dc="http://purl.org/dc/elements/1.1/"  fill="#902c20">
<path id="path4648" d="m152.5 122.98c-63.312-2.99-121.17-33.687-142.23-75.453-13.408-26.582-13.334-34.164 0.381-39.412 26.417-10.109 51.807-8.0499 84.986 6.893 23.273 10.484 50.983 41.43 47.933 53.551-3.16 12.606-47.006 4.933-64.318-11.256-6.774-6.334-4.382-7.445 12.415-5.763 21.053 2.107 12.583-14.332-14.167-27.505-35.528-17.494-50.6-8.011-34.913 21.965 22.474 42.946 82.693 66.87 137.41 54.6 26.819-6.0164 69.101-20.608 85-29.332 24.866-13.646 51.788-24.88 76-31.714 8.525-2.4063 22.7-6.4435 31.5-8.9716s18.925-5.0725 22.5-5.6543c3.575-0.58182 9.875-1.6856 14-2.4529 21.21-3.9452 65.366-3.6885 86.019 0.50024 15.864 3.2173 17.028 2.9085 27.435-7.2756 10.71-10.484 17.88-14.897 25.2-15.504l5.4872-0.45504 5.797 5.9611c8.4036 8.6415 18.655 24.937 21.777 34.619 8.6274 26.748 35.926 26.748 44.553 0 3.1228-9.6817 13.374-25.977 21.777-34.619l5.797-5.9611 5.4872 0.45504c7.3202 0.60705 14.496 5.0204 25.208 15.502 10.407 10.184 11.571 10.493 27.435 7.2756 20.654-4.1887 64.809-4.4455 86.019-0.50024 4.125 0.76728 10.425 1.8711 14 2.4529 3.575 0.58182 13.7 3.1263 22.5 5.6543 8.8 2.5281 22.975 6.5653 31.5 8.9716 24.212 6.8342 51.134 18.069 76 31.714 15.899 8.7249 58.181 23.316 85 29.332 54.718 12.275 114.94-11.653 137.41-54.598 15.687-29.976 0.6146-39.459-34.913-21.965-26.754 13.174-35.221 29.612-14.167 27.505 16.797-1.6812 19.189-0.57057 12.415 5.7636-27.934 26.121-76.867 22.482-59.621-4.4335 27.776-43.352 107.62-66.931 136.38-40.276 9.771 9.0554-13.42 52.551-37.561 70.447-64.4 47.762-165.2 54.142-244.4 15.456-14.25-6.964-23.33-11.083-32-14.516-3.85-1.524-14.42-6.128-23.5-10.231-9.075-4.1023-17.843-7.7836-19.483-8.1806-1.6408-0.39703-7.2658-2.5478-12.5-4.7795-37.06-15.801-74.16-24.354-104.65-24.127-27.244 0.20218-28.039 0.81274-31.929 24.515-7.7689 47.34-26.084 68.752-45.9 53.661-20.122-15.325-17.611-61.188 2.7767-50.713 8.5828 4.4095 9.5034 9.0607 3.1843 16.089-8.1138 9.0244-2.3794 27.836 8.1127 26.614 7.4038-0.86247 18.503-49.267 13.458-58.693-4.3617-8.15-43.081 5.0628-64.196 21.906-12.496 9.9682-11.253 9.9682-23.749 0-21.115-16.844-59.834-30.056-64.196-21.906-5.0446 9.426 6.0543 57.83 13.458 58.693 10.492 1.2222 16.226-17.589 8.1127-26.614-6.3191-7.0284-5.3986-11.68 3.1843-16.089 20.387-10.474 22.898 35.389 2.7767 50.713-19.815 15.091-38.131-6.3209-45.9-53.661-3.8899-23.703-4.6851-24.313-31.929-24.515-30.494-0.2263-67.588 8.3261-104.65 24.128-5.2342 2.2317-10.859 4.3824-12.5 4.7795-1.6408 0.39703-10.408 4.0783-19.483 8.1806s-19.65 8.7064-23.5 10.231c-8.6674 3.4329-17.748 7.552-32 14.515-35.16 17.175-86.22 26.645-132 24.485zm414.57-84.015c7.796-4.1723-10.929-29.052-20.49-27.224-9.2059 1.7598-16.612 15.819-9.9023 18.797 11.063 4.9097 28.125 9.6405 30.392 8.4269zm86.847-2.9997c21.647-6.939 23.663-10.325 12.057-20.259-7.302-6.2502-13.343-4.8645-21.111 4.8424-8.8124 11.013-10.424 18.943-3.9467 19.421 0.22682 0.01673 6.0768-1.7853 13-4.0045z"/>
</svg>
