<svg xmlns="http://www.w3.org/2000/svg" viewBox="0 0 90 90">
  <style>
    #cartouche {
      fill: #000;
    }

    #cover,
    #pages,
    #back {
      stroke: #000;
      stroke-width: 2;
      stroke-linecap: square;
      fill: none;
    }

    #cartouche_bord {
      fill: none;
      stroke: #ffffff;
      stroke-width: 4;
      stroke-linecap: square;
    }
  </style>
  <path id="cartouche" d="M 20,60 H 70 L 85,85 H 20 c -5,0 -10,-5 -10,-10 0,0 0,10 0,-5 0,-5 5,-10 10,-10 z" />
  <path id="cartouche_bord" d="M 70,60 H 20 c -5,0 -10,5 -10,10 v 5 c 0,5 5,10 10,10 h 65" />

  <path id="cover" d="M 20,60 H 70 V 5 H 20 C 15,5 10,10 10,15 v 55 c 0,-5 5,-10 10,-10 z" />
  <path id="pages" d="M85 85H20c-5 0-10-5-10-10v-5" />
  <path id="back" d="M85 15v70" />

  <path transform="translate(26, 66) scale(0.38 0.38)" id="mdown" fill="#fff"
    d="M0 36.5v-37h10l12.5 13.9L35-.5h10v37H35V13.4L22.5 29.5 10 13.4v23Zm70 0L50 18h12.5V-.5h15V18H90z" />

  <path id="txt" transform=" translate(18 25) scale(0.5)"
    d="M21.5 34.4c0 .5 0 1-.2 1.2 0 .2-.2.3-.5.3H.8c-.3 0-.5 0-.6-.3L0 34.4c0-.5 0-.9.2-1.1.1-.3.3-.4.5-.4h20.1c.2 0 .4.1.5.3.2.3.2.7.2 1.2zm14.7-28a4.5 4.5 0 0 1 0 1 3.5 3.5 0 0 1-.5 1l-.2.3-.4.1h-4.8l-2 11.6a18.7 18.7 0 0 0-.3 2c0 .8.2 1.4.5 1.7.3.4.8.6 1.4.6a4.2 4.2 0 0 0 1.7-.3l.6-.3h.6l.1.5a4.9 4.9 0 0 1-.2 1.4l-.2.6c0 .2-.2.3-.3.5l-.5.3a5.3 5.3 0 0 1-1.7.5 6.8 6.8 0 0 1-3-.2 3.5 3.5 0 0 1-2.3-2.4 7.1 7.1 0 0 1-.2-2.7v-.7l.2-.8v-.6L27 8.8h-2.6l-.4-.1-.1-.6a5.1 5.1 0 0 1 .2-1.6l.4-.6c.1-.2.3-.2.4-.2h2.7l.9-5 .1-.3.3-.2.6-.2A6.2 6.2 0 0 1 31 0c.3 0 .4.1.5.2.2 0 .2.1.3.2v.3l-.9 5h4.8c.2 0 .4 0 .4.2l.1.6zm11.1 10 4 10.1c.2.2.2.4.2.6l-.3.3-.6.2a7.4 7.4 0 0 1-2.5 0 .5.5 0 0 1-.3-.3V27l-3.3-8-6 8.1c0 .1 0 .2-.2.3l-.4.2-.6.1a8.3 8.3 0 0 1-2 0c-.2 0-.4 0-.5-.2a.3.3 0 0 1-.2-.3l.3-.6 7.8-10.2-3.9-9.6-.1-.6c0-.1 0-.2.2-.3l.6-.2a9.2 9.2 0 0 1 2.5 0l.2.3.2.2 3 7.8L51 6l.2-.2.4-.2.6-.1a8 8 0 0 1 2.5.2c.1 0 .2.1.1.3 0 .1 0 .3-.3.5zm21.8-10a6.6 6.6 0 0 1 0 1 3.7 3.7 0 0 1-.5 1l-.2.3-.4.1h-4.8l-2 11.6a14.2 14.2 0 0 0-.3 2c0 .8.2 1.4.5 1.7.3.4.7.6 1.4.6a4.2 4.2 0 0 0 1.7-.3l.5-.3h.7l.1.5a5.1 5.1 0 0 1-.2 1.4l-.2.6c0 .2-.2.3-.3.5l-.5.3a5.6 5.6 0 0 1-1.7.5 6.7 6.7 0 0 1-3-.2c-.5-.2-1-.5-1.4-1-.4-.3-.7-.8-.9-1.4a7 7 0 0 1-.2-2.7v-.7l.1-.8.2-.6 2-11.7h-2.5l-.4-.1-.1-.6a5.9 5.9 0 0 1 .2-1.6l.3-.6c.2-.2.3-.2.5-.2h2.7l.8-5 .2-.3.3-.2.6-.2a6.2 6.2 0 0 1 1.6 0l.5.2.3.2v.3l-1 5h4.9c.2 0 .3 0 .4.2l.1.6zm20.9 28c0 .5 0 1-.2 1.2 0 .2-.3.3-.5.3h-20c-.3 0-.5 0-.6-.3l-.2-1.2c0-.5 0-.9.2-1.1.1-.3.3-.4.5-.4h20.1c.2 0 .4.1.5.3l.2 1.2Z" />

</svg>