<svg xmlns="http://www.w3.org/2000/svg" viewBox="0 0 90 90">
  <style>
    #cartouche {
      fill: #295497;
    }

    .line {
      stroke-width: 2px;
      stroke: #295497;
    }

    #cover,
    #pages,
    #back {
      stroke: #000;
      stroke-width: 2;
      stroke-linecap: square;
      fill: none;
    }

    #cartouche_bord {
      fill:none;
      stroke: #ffffff;
      stroke-width: 4;
      stroke-linecap: square;
    }
  </style>

  <path id="cartouche" d="M 20,60 H 70 L 85,85 H 20 c -5,0 -10,-5 -10,-10 0,0 0,10 0,-5 0,-5 5,-10 10,-10 z" />
  <path id="cartouche_bord" d="M 70,60 H 20 c -5,0 -10,5 -10,10 v 5 c 0,5 5,10 10,10 h 65"/>
  <path id="cover" d="M 20,60 H 70 V 5 H 20 C 15,5 10,10 10,15 v 55 c 0,-5 5,-10 10,-10 z" />
  <path id="pages" d="M85 85H20c-5 0-10-5-10-10v-5" />
  <path id="back" d="M85 15v70" />


  <g id="lines" transform="translate(25, 25)">
    <line class="line" x1="0" y1="0" x2="35" y2="0" />
    <line class="line" x1="0" y1="5" x2="35" y2="5" />
    <line class="line" x1="0" y1="10" x2="35" y2="10" />
    <line class="line" x1="0" y1="15" x2="35" y2="15" />
    <line class="line" x1="0" y1="20" x2="35" y2="20" />
  </g>
  <path fill="#fff" transform="translate(20 67) scale(0.5 0.5)"
    d="m 19.4,11.8 q 0,6 -3.4,9 -3.4,3 -9.4,3 H 0 V 0.3 h 7.3 q 3.7,0 6.4,1.3 2.7,1.3 4.2,3.8 1.5,2.6 1.5,6.3 z m -5.2,0.1 Q 14.2,8.1 12.5,6.3 10.8,4.4 7.5,4.4 H 5 v 15.2 h 2.2 q 7.1,0 7.1,-7.7 z M 45.4,12 q 0,3.6 -1.2,6.3 Q 43,21 40.6,22.6 38,24 34.3,24 30.6,24 28,22.6 25.6,21 24.4,18.3 23.2,15.6 23.2,12 23.2,8.3 24.4,5.7 25.6,3 28,1.5 30.5,0 34.3,0 38.1,0 40.6,1.5 43,3 44.2,5.7 45.4,8.4 45.4,12 Z m -17,0 q 0,3.7 1.4,5.8 1.4,2.1 4.5,2.1 3.2,0 4.5,-2.1 1.4,-2.1 1.4,-5.8 0,-3.7 -1.4,-5.8 -1.3,-2 -4.5,-2 -3.1,0 -4.5,2 -1.4,2.1 -1.4,5.8 z M 60.2,4.2 q -2.9,0 -4.4,2 -1.5,2.2 -1.5,6 0,3.6 1.4,5.7 1.4,2 4.5,2 1.4,0 2.8,-0.3 1.5,-0.3 3.1,-1 v 4.2 q -1.5,0.7 -3,1 -1.5,0.3 -3.4,0.3 -3.6,0 -6,-1.5 -2.3,-1.5 -3.4,-4.2 -1,-2.7 -1,-6.3 0,-3.6 1.2,-6.3 1.3,-2.7 3.7,-4.2 2.5,-1.6 6,-1.6 1.7,0 3.5,0.5 1.7,0.4 3.3,1.2 l -1.6,4 -2.6,-1 Q 61.5,4.2 60.2,4.2 Z M 90,23.7 H 84.3 L 79,15 73.6,23.8 H 68.3 L 76,11.8 68.7,0.4 H 74 l 5,8.4 5,-8.4 h 5.3 L 82,11.9 Z"
    style="stroke-width:1.81829" id="docx" />
</svg>