<svg xmlns="http://www.w3.org/2000/svg" viewBox="0 0 90 90">
  <style>
    #cartouche {
      fill: #ec6630;
    }

    #cover,
    #pages,
    #back {
      stroke: #000;
      stroke-width: 2;
      stroke-linecap: square;
      fill: none;
    }

    .segment {
      stroke-width: 5;
      fill: none;
      stroke-linecap: round;
      stroke-linejoin: round;
      stroke-opacity: 1;
    }
  </style>
  <path id="cartouche" 
       d="M 20,60 H 70 L 85,85 H 20 C 10,85 9.892,75.404 9.892,75.404 9.892,75.404 10,85 10,70 10,65 15,60 20,60 Z"
   />
  <path id="cover" d="M20 60h50V5H25c-9.769 0-14.858 6.505-15 15v50c0-5 5-10 10-10z" />
  <path id="pages" d="M85 85H20c-5 0-10-5-10-10v-5" />
  <path id="back" d="M85 15v70" />
  <path id="html" fill="#fff"
    d="M19.3 23.6h-5V13.4H5v10.2H0V0h5v9.2h9.3V0h5zm15 0h-5V4.2H23V0h17.8v4.2h-6.4zm20 0L48.6 5h-.1l.1 2 .1 2.8.1 2.7v11h-4.5V0h6.8l5.6 18h.1l6-18h6.7v23.6H65V9.8l.1-2.7.1-2H65l-6.1 18.5zm21.2 0V0h5v19.4H90v4.2z"
    transform="translate(25, 68) scale(0.5)" />
  <g id="brackets">
    <path id="path7" stroke="#ec6630" d="M35 25L25 35l10 10" class="segment" />
    <path id="path9" stroke="#ec6630" d="M50 25l10 10-10 10" class="segment" />
  </g>
</svg>