<?xml version="1.0" encoding="UTF-8" standalone="no"?>
<svg viewBox="0 0 90 90" version="1.1" id="svg12" sodipodi:docname="icon_html.svg"
   inkscape:version="1.1.2 (b8e25be833, 2022-02-05)" xmlns:inkscape="http://www.inkscape.org/namespaces/inkscape"
   xmlns:sodipodi="http://sodipodi.sourceforge.net/DTD/sodipodi-0.dtd" xmlns="http://www.w3.org/2000/svg"
   xmlns:svg="http://www.w3.org/2000/svg">
   <defs id="defs16" />
   <sodipodi:namedview id="namedview14" pagecolor="#ffffff" bordercolor="#666666" borderopacity="1.0"
      inkscape:pageshadow="2" inkscape:pageopacity="0.0" inkscape:pagecheckerboard="0" showgrid="true"
      inkscape:zoom="7.0632111" inkscape:cx="24.705477" inkscape:cy="67.391445" inkscape:window-width="1920"
      inkscape:window-height="1055" inkscape:window-x="-7" inkscape:window-y="-7" inkscape:window-maximized="1"
      inkscape:current-layer="svg12">
      <inkscape:grid type="xygrid" id="grid833" />
   </sodipodi:namedview>
   <style id="style2">
      #cartouche {
         fill: #ec6630;
      }

      #cover,
      #pages,
      #back {
         stroke: #000;
         stroke-width: 2;
         stroke-linecap: square;
         fill: none;
      }

      #cartouche {
         stroke: #ffffff;
         stroke-width: 4
      }

      .segment {
         stroke-width: 5;
         fill: none;
         stroke-linecap: round;
         stroke-linejoin: round;
         stroke-opacity: 1;
      }
   </style>
   <path id="cartouche" d="M 20,60 H 70 L 85,85 H 20 c -5,0 -10,-5 -10,-10 0,0 0,10 0,-5 0,-5 5,-10 10,-10 z" />
   <path id="cover" d="M20 60h50V5H25c-9.769 0-14.858 6.505-15 15v50c0-5 5-10 10-10z" />
   <path id="pages" d="M 85,85 H 20 C 15,85 10,80 10,75 v -5" sodipodi:nodetypes="cssc" />
   <path id="back" d="M85 15v70" />
   <path id="html" fill="#ffffff"
      d="M 33.5,79.1 H 31 V 74 h -4.65 v 5.1 h -2.5 V 67.3 h 2.5 v 4.6 H 31 v -4.6 h 2.5 z m 7.5,0 h -2.5 v -9.7 h -3.15 v -2.1 h 8.9 v 2.1 h -3.2 z m 10,0 -2.85,-9.3 H 48.1 l 0.05,1 0.05,1.4 0.05,1.35 v 5.5 H 46 V 67.3 h 3.4 l 2.8,9 h 0.05 l 3,-9 h 3.35 v 11.8 h -2.25 v -6.9 l 0.05,-1.35 0.05,-1 h -0.1 L 53.3,79.1 Z m 10.6,0 V 67.3 h 2.5 V 77 h 4.75 v 2.1 z"
      style="stroke-width:0.5" />
   <g id="brackets">
      <path id="path7" stroke="#ec6630" d="M35 25L25 35l10 10" class="segment" />
      <path id="path9" stroke="#ec6630" d="M50 25l10 10-10 10" class="segment" />
   </g>
</svg>