<svg xmlns="http://www.w3.org/2000/svg" version="1.1" viewBox="0 0 90 90">
   <style>
      #cartouche {
         fill: #ec6630;
      }

      #cartouche_bord {
         fill: none;
         stroke: #ffffff;
         stroke-width: 4;
         stroke-linecap: square;
      }

      #cover,
      #pages,
      #back {
         stroke: #000;
         stroke-width: 2;
         stroke-linecap: square;
         fill: none;
      }

      .segment {
         stroke-width: 5;
         fill: none;
         stroke-linecap: round;
         stroke-linejoin: round;
         stroke-opacity: 1;
      }
   </style>
   <path id="cartouche" stroke="none" stroke-dasharray="none" stroke-miterlimit="4" stroke-opacity="1" stroke-width="4"
      d="M20 60h50l15 25H20c-5 0-10-5-10-10v-5c0-5 5-10 10-10z" />
   <path id="cartouche_bord" d="M70 60H20c-5 0-10 5-10 10v5c0 5 5 10 10 10h65" />
   <path id="cover" d="M 20,60 H 70 V 5 H 20 C 15,5 10,10 10,15 v 55 c 0,-5 5,-10 10,-10 z" />
   <path id="pages" d="M85 85H20c-5 0-10-5-10-10v-5" />
   <path id="back" d="M85 15v70" />
   <path id="html" transform="translate(23, 67) scale(0.5)" fill="#fff"
      d="M19.3 23.6h-5V13.4H5v10.2H0V0h5v9.2h9.3V0h5zm15 0h-5V4.2H23V0h17.8v4.2h-6.4zm20 0L48.6 5h-.1l.1 2 .1 2.8.1 2.7v11h-4.5V0h6.8l5.6 18h.1l6-18h6.7v23.6H65V9.8l.1-2.7.1-2H65l-6.1 18.5zm21.2 0V0h5v19.4H90v4.2z" />
   <g id="brackets">
      <path id="path7" stroke="#ec6630" d="M35 25L25 35l10 10" class="segment" />
      <path id="path9" stroke="#ec6630" d="M50 25l10 10-10 10" class="segment" />
   </g>
</svg>