<?xml version="1.0" encoding="UTF-8"?><svg xmlns="http://www.w3.org/2000/svg" xmlns:xlink="http://www.w3.org/1999/xlink" fill-opacity="1" color-rendering="auto" color-interpolation="auto" text-rendering="auto" stroke="black" stroke-linecap="square" width="810" stroke-miterlimit="10" shape-rendering="auto" stroke-opacity="1" fill="black" stroke-dasharray="none" font-weight="normal" stroke-width="1" height="351" font-family="'Dialog'" font-style="normal" stroke-linejoin="miter" font-size="12px" stroke-dashoffset="0" image-rendering="auto">
  <!--Generated by ySVG 2.6-->
  <defs id="genericDefs"/>
  <g>
    <defs id="defs1">
      <clipPath clipPathUnits="userSpaceOnUse" id="clipPath1">
        <path d="M0 0 L810 0 L810 351 L0 351 L0 0 Z"/>
      </clipPath>
      <clipPath clipPathUnits="userSpaceOnUse" id="clipPath2">
        <path d="M205 79 L475 79 L475 196 L205 196 L205 79 Z"/>
      </clipPath>
      <clipPath clipPathUnits="userSpaceOnUse" id="clipPath3">
        <path d="M-156.3333 -1273 L5873.6665 -1273 L5873.6665 1340 L-156.3333 1340 L-156.3333 -1273 Z"/>
      </clipPath>
      <clipPath clipPathUnits="userSpaceOnUse" id="clipPath4">
        <path d="M-91.2963 -1273 L5958.7041 -1273 L5958.7041 1340 L-91.2963 1340 L-91.2963 -1273 Z"/>
      </clipPath>
      <clipPath clipPathUnits="userSpaceOnUse" id="clipPath5">
        <path d="M-4623 -714.6667 L1407 -714.6667 L1407 1898.3334 L-4623 1898.3334 L-4623 -714.6667 Z"/>
      </clipPath>
      <clipPath clipPathUnits="userSpaceOnUse" id="clipPath6">
        <path d="M-4572.7783 -714.6667 L1477.2224 -714.6667 L1477.2224 1898.3334 L-4572.7783 1898.3334 L-4572.7783 -714.6667 Z"/>
      </clipPath>
      <clipPath clipPathUnits="userSpaceOnUse" id="clipPath7">
        <path d="M-4600 -1844.0675 L1400 -1844.0675 L1400 755.9324 L-4600 755.9324 L-4600 -1844.0675 Z"/>
      </clipPath>
      <clipPath clipPathUnits="userSpaceOnUse" id="clipPath8">
        <path d="M-4549.7021 -1844.0675 L1470.1991 -1844.0675 L1470.1991 755.9324 L-4549.7021 755.9324 L-4549.7021 -1844.0675 Z"/>
      </clipPath>
      <clipPath clipPathUnits="userSpaceOnUse" id="clipPath9">
        <path d="M-2389.6667 -2054.6667 L3640.3333 -2054.6667 L3640.3333 558.3333 L-2389.6667 558.3333 L-2389.6667 -2054.6667 Z"/>
      </clipPath>
      <clipPath clipPathUnits="userSpaceOnUse" id="clipPath10">
        <path d="M-2332.0374 -2054.6667 L3717.9634 -2054.6667 L3717.9634 558.3333 L-2332.0374 558.3333 L-2332.0374 -2054.6667 Z"/>
      </clipPath>
      <clipPath clipPathUnits="userSpaceOnUse" id="clipPath11">
        <path d="M-2377.7778 -1266.6666 L3622.2222 -1266.6666 L3622.2222 1333.3334 L-2377.7778 1333.3334 L-2377.7778 -1266.6666 Z"/>
      </clipPath>
      <clipPath clipPathUnits="userSpaceOnUse" id="clipPath12">
        <path d="M-2320.1089 -1266.6666 L3699.7922 -1266.6666 L3699.7922 1333.3334 L-2320.1089 1333.3334 L-2320.1089 -1266.6666 Z"/>
      </clipPath>
    </defs>
    <g fill="rgb(233,233,224)" text-rendering="geometricPrecision" shape-rendering="geometricPrecision" transform="scale(3,3) translate(-205,-79)" stroke="rgb(233,233,224)">
      <rect x="205" width="270" height="117" y="79" clip-path="url(#clipPath2)" stroke="none"/>
    </g>
    <g stroke-linecap="butt" transform="matrix(3,0,0,3,-615,-237)" fill="white" text-rendering="geometricPrecision" shape-rendering="geometricPrecision" stroke="white" stroke-miterlimit="1.45">
      <rect x="210" y="135" clip-path="url(#clipPath2)" fill="none" width="60" rx="4" ry="4" height="20"/>
    </g>
    <g fill="white" text-rendering="geometricPrecision" shape-rendering="geometricPrecision" transform="matrix(0.1339,0,0,0.1343,12.2231,171)" stroke="white">
      <g clip-path="url(#clipPath4)">
        <svg opacity="1" writing-mode="lr-tb" shape-rendering="auto" stop-color="rgb(0, 0, 0)" glyph-orientation-horizontal="0deg" color-profile="auto" lighting-color="rgb(255, 255, 255)" color="rgb(0, 0, 0)" font-weight="400" alignment-baseline="auto" font-style="normal" color-interpolation-filters="linearrgb" text-anchor="start" stroke-linecap="butt" color-interpolation="srgb" font-variant="normal" word-spacing="normal" fill-opacity="1" text-rendering="auto" clip-path="none" text-decoration="none" letter-spacing="normal" viewBox="0 0 90 90" glyph-orientation-vertical="auto" display="inline" font-size-adjust="none" fill="rgb(0, 0, 0)" overflow="hidden" font-stretch="normal" stroke-dasharray="none" stroke-miterlimit="4" stop-opacity="1" color-rendering="auto" font-size="12" mask="none" direction="ltr" baseline-shift="baseline" pointer-events="visiblepainted" enable-background="accumulate" fill-rule="nonzero" image-rendering="auto" stroke-dashoffset="0" marker-end="none" clip="auto" cursor="auto" filter="none" stroke="none" visibility="visible" kerning="auto" stroke-width="1" font-family="&quot;Arial&quot;,&quot;Helvetica&quot;,sans-serif" flood-opacity="1" clip-rule="nonzero" src="none" unicode-bidi="normal" stroke-linejoin="miter" stroke-opacity="1" flood-color="rgb(0, 0, 0)" dominant-baseline="auto" marker-start="none" marker-mid="none">
            
          <style>
    #page {
      fill: #e9e9e0;
    }

    #page_stroke {
      fill: none;
      stroke: #888;
      stroke-width: 0.5;
    }

    #corner {
      fill: #d9d7ca;
    }

    #mdown {
      fill: #fff;
    }

    #cartouche {
      fill: #3c5798;
    }

    .line {
      stroke-width: 2px;
      stroke: #000;
    }
  </style>
            
          <path id="svg1.page" d="M 50,0 H 25 C 20,0 15,5 15,10 v 70 c 0,5 5,10 10,10 h 40 c 5,0 10,-5 10,-10 V 25 L 50,0 c 0,0 -1,-2 0,0.21 z"/>
            
          <path id="svg1.corner" d="M50 0v25h25z"/>
            
          <path id="svg1.cartouche" d="M 65,90 H 25 C 20,90 15,85 15,80 V 65 h 60 v 15 c 0,5 -5,10 -10,10 z"/>
            
          <path id="svg1.page_stroke" d="M 50,0 H 25 C 20,0 15,5 15,10 v 70 c 0,5 5,10 10,10 h 40 c 5,0 10,-5 10,-10 V 25 L 50,0 c 0,0 -1,-2 0,0.21 z"/>
            
          <line y2="35" x1="20" class="line" x2="70" y1="35"/>
            
          <line y2="40" x1="20" class="line" x2="70" y1="40"/>
            
          <line y2="45" x1="20" class="line" x2="70" y1="45"/>
            
          <line y2="50" x1="20" class="line" x2="70" y1="50"/>
            
          <line y2="55" x1="20" class="line" x2="70" y1="55"/>
            
          <path fill="#fff" d="M 32.123 77.078 Q 32.123 80.336 30.269 81.983 Q 28.415 83.63 25.103 83.63 L 21.467 83.63 L 21.467 70.778 L 25.499 70.778 Q 27.515 70.778 29 71.498 Q 30.485 72.218 31.304 73.622 Q 32.123 75.026 32.123 77.078 Z M 29.297 77.15 Q 29.297 75.026 28.361 74.018 Q 27.425 73.01 25.643 73.01 L 24.185 73.01 L 24.185 81.38 L 25.355 81.38 Q 29.297 81.38 29.297 77.15 Z M 46.45 77.186 Q 46.45 79.184 45.793 80.669 Q 45.136 82.154 43.777 82.982 Q 42.418 83.81 40.33 83.81 Q 38.242 83.81 36.883 82.982 Q 35.524 82.154 34.867 80.66 Q 34.21 79.166 34.21 77.168 Q 34.21 75.17 34.867 73.694 Q 35.524 72.218 36.883 71.399 Q 38.242 70.58 40.348 70.58 Q 42.436 70.58 43.786 71.399 Q 45.136 72.218 45.793 73.703 Q 46.45 75.188 46.45 77.186 Z M 37.072 77.186 Q 37.072 79.202 37.846 80.363 Q 38.62 81.524 40.33 81.524 Q 42.076 81.524 42.832 80.363 Q 43.588 79.202 43.588 77.186 Q 43.588 75.17 42.832 74.009 Q 42.076 72.848 40.348 72.848 Q 38.62 72.848 37.846 74.009 Q 37.072 75.17 37.072 77.186 Z M 54.567 72.866 Q 53.001 72.866 52.173 74.036 Q 51.345 75.206 51.345 77.24 Q 51.345 79.292 52.11 80.417 Q 52.875 81.542 54.567 81.542 Q 55.341 81.542 56.133 81.362 Q 56.925 81.182 57.843 80.858 L 57.843 83.144 Q 56.997 83.486 56.169 83.648 Q 55.341 83.81 54.315 83.81 Q 52.317 83.81 51.039 82.991 Q 49.761 82.172 49.149 80.687 Q 48.537 79.202 48.537 77.222 Q 48.537 75.278 49.239 73.784 Q 49.941 72.29 51.282 71.444 Q 52.623 70.598 54.567 70.598 Q 55.521 70.598 56.484 70.841 Q 57.447 71.084 58.329 71.498 L 57.447 73.712 Q 56.727 73.37 55.998 73.118 Q 55.269 72.866 54.567 72.866 Z M 70.964 83.63 L 67.85 83.63 L 64.862 78.77 L 61.874 83.63 L 58.958 83.63 L 63.224 77.006 L 59.228 70.778 L 62.234 70.778 L 65.006 75.404 L 67.724 70.778 L 70.658 70.778 L 66.626 77.15 Z"/>
          
        </svg>
      </g>
    </g>
    <g text-rendering="geometricPrecision" stroke-miterlimit="1.45" shape-rendering="geometricPrecision" font-family="'DejaVu Sans Light'" transform="matrix(3,0,0,3,-615,-237)" stroke-linecap="butt">
      <text x="229" xml:space="preserve" y="149.1543" clip-path="url(#clipPath2)" stroke="none">docx</text>
    </g>
    <g stroke-linecap="butt" transform="matrix(3,0,0,3,-615,-237)" fill="white" text-rendering="geometricPrecision" shape-rendering="geometricPrecision" stroke="white" stroke-miterlimit="1.45">
      <rect x="410" y="110" clip-path="url(#clipPath2)" fill="none" width="60" rx="4" ry="4" height="20"/>
    </g>
    <g fill="white" text-rendering="geometricPrecision" shape-rendering="geometricPrecision" transform="matrix(0.1339,0,0,0.1343,612.2231,96)" stroke="white">
      <g clip-path="url(#clipPath6)">
        <svg opacity="1" writing-mode="lr-tb" shape-rendering="auto" stop-color="rgb(0, 0, 0)" glyph-orientation-horizontal="0deg" color-profile="auto" lighting-color="rgb(255, 255, 255)" color="rgb(0, 0, 0)" font-weight="400" alignment-baseline="auto" font-style="normal" color-interpolation-filters="linearrgb" text-anchor="start" stroke-linecap="butt" color-interpolation="srgb" font-variant="normal" word-spacing="normal" fill-opacity="1" text-rendering="auto" clip-path="none" text-decoration="none" letter-spacing="normal" viewBox="0 0 90 90" glyph-orientation-vertical="auto" display="inline" font-size-adjust="none" fill="rgb(0, 0, 0)" overflow="hidden" font-stretch="normal" stroke-dasharray="none" stroke-miterlimit="4" stop-opacity="1" color-rendering="auto" font-size="12" mask="none" direction="ltr" baseline-shift="baseline" pointer-events="visiblepainted" enable-background="accumulate" fill-rule="nonzero" image-rendering="auto" stroke-dashoffset="0" marker-end="none" clip="auto" cursor="auto" filter="none" stroke="none" visibility="visible" kerning="auto" stroke-width="1" font-family="&quot;Arial&quot;,&quot;Helvetica&quot;,sans-serif" flood-opacity="1" clip-rule="nonzero" src="none" unicode-bidi="normal" stroke-linejoin="miter" stroke-opacity="1" flood-color="rgb(0, 0, 0)" dominant-baseline="auto" marker-start="none" marker-mid="none">
            
          <style>
    #page {
      fill: #e9e9e0;
    }

    #page_stroke {
      fill: none;
      stroke: #888;
      stroke-width: 0.5;
    }

    #corner {
      fill: #d9d7ca;
    }

    #mdown {
      fill: #fff;
    }

    #cartouche {
      fill: #86B918;
    }
  </style>
            
          <path id="svg2.page" d="M 50,0 H 25 C 20,0 15,5 15,10 v 70 c 0,5 5,10 10,10 h 40 c 5,0 10,-5 10,-10 V 25 L 50,0 c 0,0 -1,-2 0,0.21 z"/>
            
          <path id="svg2.corner" d="M50 0v25h25z"/>
            
          <path id="svg2.cartouche" d="M 65,90 H 25 C 20,90 15,85 15,80 V 65 h 60 v 15 c 0,5 -5,10 -10,10 z"/>
            
          <path id="svg2.page_stroke" d="M 50,0 H 25 C 20,0 15,5 15,10 v 70 c 0,5 5,10 10,10 h 40 c 5,0 10,-5 10,-10 V 25 L 50,0 c 0,0 -1,-2 0,0.21 z"/>
            
          <path fill="#86B918" d="M298.549,467.913L129.228,298.579L298.549,129.27l56.446,56.435L242.104,298.579l56.441,56.443     l169.323-169.309L320.366,38.217c-12.043-12.055-31.579-12.055-43.634,0L38.169,276.781c-12.044,12.043-12.044,31.58,0,43.633     l238.563,238.558c12.055,12.05,31.591,12.05,43.634,0l238.564-238.558c12.044-12.053,12.044-31.59,0-43.633L524.3,242.159     L298.549,467.913z" transform="translate(18 12) scale(0.09 0.09)"/>
            
          <g id="svg2.epub" transform="translate(8 -8) scale(0.12 0.12)">
                
            <path fill="#fff" d="M131.969,755.898c11.244,0,19.199-4.599,25.85-11.573l7.591,6.827c-8.227,9.192-18.222,15.376-33.76,15.376   c-22.534,0-40.906-17.294-40.906-42.824c0-23.777,16.649-42.815,39.333-42.815c24.237,0,38.203,19.347,38.203,43.453   c0,1.113,0,2.381-0.15,3.803h-65.031C104.838,745.921,117.536,755.898,131.969,755.898z M155.927,719.111   c-1.277-14.907-9.844-27.916-26.194-27.916c-14.242,0-25.043,11.909-26.639,27.916H155.927z"/>
                
            <path fill="#41281B" d="M231.23,725.461h-26.957v39.177H191.75V653.616h41.562c25.043,0,41.542,13.331,41.542,35.373   C274.854,713.096,254.87,725.461,231.23,725.461z M232.333,665.196h-28.062v48.839h27.447c18.386,0,30.441-9.823,30.441-24.577   C262.163,673.444,250.28,665.196,232.333,665.196z"/>
                
            <path fill="#41281B" d="M388.377,717.193c0,32.363-18.535,49.174-46.3,49.174c-27.424,0-46.134-16.811-46.134-48.208v-64.543   h12.518v63.752c0,23.939,12.693,37.425,33.954,37.425c20.453,0,33.462-12.378,33.462-36.634v-64.543h12.5V717.193z"/>
                
            <path fill="#41281B" d="M500.202,681.379c0,14.584-8.885,22.034-17.602,25.85c13.163,3.95,23.771,11.561,23.771,26.958   c0,19.172-16.014,30.451-40.269,30.451h-50.112V653.616h48.048C485.92,653.616,500.202,664.392,500.202,681.379z M487.51,683.122   c0-11.112-8.739-18.24-24.573-18.24h-34.59v38.229h33.63C477.033,703.104,487.51,696.277,487.51,683.122z M493.698,733.388   c0-12.218-10.162-19.192-29.513-19.192h-35.839v39.163h38.076C483.238,753.358,493.698,745.921,493.698,733.388z"/>
              
          </g>
          
        </svg>
      </g>
    </g>
    <g text-rendering="geometricPrecision" stroke-miterlimit="1.45" shape-rendering="geometricPrecision" font-family="'DejaVu Sans Light'" transform="matrix(3,0,0,3,-615,-237)" stroke-linecap="butt">
      <text x="429" xml:space="preserve" y="124.1543" clip-path="url(#clipPath2)" stroke="none">epub</text>
    </g>
    <g stroke-linecap="butt" transform="matrix(3,0,0,3,-615,-237)" fill="white" text-rendering="geometricPrecision" shape-rendering="geometricPrecision" stroke="white" stroke-miterlimit="1.45">
      <rect x="410" y="160.983" clip-path="url(#clipPath2)" fill="none" width="60" rx="4" ry="4" height="20"/>
    </g>
    <g fill="white" text-rendering="geometricPrecision" shape-rendering="geometricPrecision" transform="matrix(0.1346,0,0,0.135,612.1793,248.9491)" stroke="white">
      <g clip-path="url(#clipPath8)">
        <svg opacity="1" writing-mode="lr-tb" shape-rendering="auto" stop-color="rgb(0, 0, 0)" glyph-orientation-horizontal="0deg" color-profile="auto" lighting-color="rgb(255, 255, 255)" color="rgb(0, 0, 0)" font-weight="400" alignment-baseline="auto" font-style="normal" color-interpolation-filters="linearrgb" text-anchor="start" stroke-linecap="butt" color-interpolation="srgb" font-variant="normal" word-spacing="normal" fill-opacity="1" text-rendering="auto" clip-path="none" text-decoration="none" letter-spacing="normal" viewBox="0 0 90 90" glyph-orientation-vertical="auto" display="inline" font-size-adjust="none" fill="rgb(0, 0, 0)" overflow="hidden" font-stretch="normal" stroke-dasharray="none" stroke-miterlimit="4" stop-opacity="1" color-rendering="auto" font-size="12" mask="none" direction="ltr" baseline-shift="baseline" pointer-events="visiblepainted" enable-background="accumulate" fill-rule="nonzero" image-rendering="auto" stroke-dashoffset="0" marker-end="none" clip="auto" cursor="auto" filter="none" stroke="none" visibility="visible" kerning="auto" stroke-width="1" font-family="&quot;Arial&quot;,&quot;Helvetica&quot;,sans-serif" flood-opacity="1" clip-rule="nonzero" src="none" unicode-bidi="normal" stroke-linejoin="miter" stroke-opacity="1" flood-color="rgb(0, 0, 0)" dominant-baseline="auto" marker-start="none" marker-mid="none">
            
          <style>
    #page {
      fill: #e9e9e0;
      stroke: none;
    }

    #page_stroke {
      fill: none;
      stroke: #888;
      stroke-width: 0.5;
    }

    #corner {
      fill: #d9d7ca;
    }

    #cartouche {
      fill: #ec6630;
    }

    .segment {
      stroke-width: 3;
      fill: none;
      stroke-linecap: round;
      stroke-linejoin: round;
      stroke-opacity: 1;
    }
  </style>
            
          <path id="svg3.page" d="M 50,0 H 25 C 20,0 15,5 15,10 v 70 c 0,5 5,10 10,10 h 40 c 5,0 10,-5 10,-10 V 25 L 50,0 c 0,0 -1,-2 0,0.21 z"/>
            
          <path id="svg3.corner" d="M50 0v25h25z"/>
            
          <path id="svg3.cartouche" d="M 65,90 H 25 C 20,90 15,85 15,80 V 65 h 60 v 15 c 0,5 -5,10 -10,10 z"/>
            
          <path id="svg3.page_stroke" d="M 50,0 H 25 C 20,0 15,5 15,10 v 70 c 0,5 5,10 10,10 h 40 c 5,0 10,-5 10,-10 V 25 L 50,0 c 0,0 -1,-2 0,0.21 z"/>
            
          <path fill="#fff" id="svg3.html" d="M 31.961 83.434 L 29.394 83.434 L 29.394 78.198 L 24.583 78.198 L 24.583 83.434 L 22.016 83.434 L 22.016 71.296 L 24.583 71.296 L 24.583 76.056 L 29.394 76.056 L 29.394 71.296 L 31.961 71.296 Z M 39.691 83.434 L 37.124 83.434 L 37.124 73.438 L 33.826 73.438 L 33.826 71.296 L 42.989 71.296 L 42.989 73.438 L 39.691 73.438 Z M 49.997 83.434 L 47.073 73.914 L 47.005 73.914 Q 47.022 74.254 47.056 74.934 Q 47.09 75.614 47.124 76.396 Q 47.158 77.178 47.158 77.79 L 47.158 83.434 L 44.863 83.434 L 44.863 71.296 L 48.365 71.296 L 51.238 80.578 L 51.289 80.578 L 54.332 71.296 L 57.834 71.296 L 57.834 83.434 L 55.437 83.434 L 55.437 77.688 Q 55.437 77.11 55.463 76.362 Q 55.488 75.614 55.514 74.942 Q 55.539 74.271 55.556 73.931 L 55.488 73.931 L 52.36 83.434 Z M 60.891 83.434 L 60.891 71.296 L 63.458 71.296 L 63.458 81.309 L 68.388 81.309 L 68.388 83.434 Z"/>
            
          <path class="segment" d="M 35,35 25,45 35,55" stroke="#ec6630"/>
            
          <path class="segment" d="M 55,35 65,45 55,55" stroke="#ec6630"/>
          
        </svg>
      </g>
    </g>
    <g text-rendering="geometricPrecision" stroke-miterlimit="1.45" shape-rendering="geometricPrecision" font-family="'DejaVu Sans Light'" transform="matrix(3,0,0,3,-615,-237)" stroke-linecap="butt">
      <text x="429" xml:space="preserve" y="175.1373" clip-path="url(#clipPath2)" stroke="none">html</text>
    </g>
    <g stroke-linecap="butt" transform="matrix(3,0,0,3,-615,-237)" fill="white" text-rendering="geometricPrecision" shape-rendering="geometricPrecision" stroke="white" stroke-miterlimit="1.45">
      <rect x="310" y="170" clip-path="url(#clipPath2)" fill="none" width="60" rx="4" ry="4" height="20"/>
    </g>
    <g fill="white" text-rendering="geometricPrecision" shape-rendering="geometricPrecision" transform="matrix(0.1339,0,0,0.1343,312.2231,276)" stroke="white">
      <g clip-path="url(#clipPath10)">
        <svg opacity="1" writing-mode="lr-tb" shape-rendering="auto" stop-color="rgb(0, 0, 0)" glyph-orientation-horizontal="0deg" color-profile="auto" lighting-color="rgb(255, 255, 255)" color="rgb(0, 0, 0)" font-weight="400" alignment-baseline="auto" font-style="normal" color-interpolation-filters="linearrgb" text-anchor="start" stroke-linecap="butt" color-interpolation="srgb" font-variant="normal" word-spacing="normal" fill-opacity="1" text-rendering="auto" clip-path="none" text-decoration="none" letter-spacing="normal" viewBox="0 0 90 90" glyph-orientation-vertical="auto" display="inline" font-size-adjust="none" fill="rgb(0, 0, 0)" overflow="hidden" font-stretch="normal" stroke-dasharray="none" stroke-miterlimit="4" stop-opacity="1" color-rendering="auto" font-size="12" mask="none" direction="ltr" baseline-shift="baseline" pointer-events="visiblepainted" enable-background="accumulate" fill-rule="nonzero" image-rendering="auto" stroke-dashoffset="0" marker-end="none" clip="auto" cursor="auto" filter="none" stroke="none" visibility="visible" kerning="auto" stroke-width="1" font-family="&quot;Arial&quot;,&quot;Helvetica&quot;,sans-serif" flood-opacity="1" clip-rule="nonzero" src="none" unicode-bidi="normal" stroke-linejoin="miter" stroke-opacity="1" flood-color="rgb(0, 0, 0)" dominant-baseline="auto" marker-start="none" marker-mid="none">
            
          <style>
    #page {
      fill: #e9e9e0;
    }

    #page_stroke {
      fill: none;
      stroke: #888;
      stroke-width: 0.5;
    }

    #corner {
      fill: #d9d7ca;
    }

    #mdown {
      fill: #fff;
    }
  </style>
            
          <path id="svg4.page" d="M 50,0 H 25 C 20,0 15,5 15,10 v 70 c 0,5 5,10 10,10 h 40 c 5,0 10,-5 10,-10 V 25 L 50,0 c 0,0 -1,-2 0,0.21 z"/>
            
          <path id="svg4.corner" d="M50 0v25h25z"/>
            
          <path id="svg4.cartouche" d="M 65,90 H 25 C 20,90 15,85 15,80 V 65 h 60 v 15 c 0,5 -5,10 -10,10 z"/>
            
          <path id="svg4.page_stroke" d="M 50,0 H 25 C 20,0 15,5 15,10 v 70 c 0,5 5,10 10,10 h 40 c 5,0 10,-5 10,-10 V 25 L 50,0 c 0,0 -1,-2 0,0.21 z"/>
            
          <path id="svg4.mdown" d="M 25.885 86 L 25.885 70.345 L 30.12 70.345 L 35.414 76.215 L 40.707 70.345 L 44.942 70.345 L 44.942 86 L 40.707 86 L 40.707 76.215 L 35.414 83.065 L 30.12 76.215 L 30.12 86 L 25.885 86 Z M 55.53 86 L 47.06 78.172 L 52.354 78.172 L 52.354 70.345 L 58.706 70.345 L 58.706 78.172 L 64 78.172 L 55.53 86 Z"/>
            
          <path style="stroke-linecap: round; stroke-linejoin: round; stroke-opacity: 0.48; white-space: pre;" id="svg4._txt_" d="M 30.293 51.644 C 30.293 51.972 30.258 52.213 30.19 52.363 C 30.123 52.513 30.016 52.588 29.871 52.588 L 17.605 52.588 C 17.462 52.588 17.351 52.517 17.275 52.375 C 17.196 52.236 17.158 52 17.158 51.673 C 17.158 51.356 17.196 51.116 17.275 50.956 C 17.351 50.8 17.462 50.72 17.605 50.72 L 29.871 50.72 C 30.008 50.72 30.112 50.796 30.185 50.944 C 30.258 51.093 30.293 51.328 30.293 51.644 Z M 39.279 34.608 C 39.279 34.691 39.274 34.782 39.264 34.882 C 39.256 34.979 39.24 35.079 39.214 35.184 C 39.19 35.287 39.154 35.389 39.113 35.491 C 39.07 35.596 39.026 35.687 38.982 35.766 C 38.933 35.845 38.88 35.909 38.82 35.957 C 38.76 36.001 38.692 36.025 38.617 36.025 L 35.687 36.025 L 34.399 43.077 C 34.365 43.274 34.337 43.495 34.31 43.737 C 34.285 43.982 34.274 44.183 34.274 44.342 C 34.274 44.818 34.364 45.168 34.545 45.387 C 34.728 45.607 35.023 45.718 35.431 45.718 C 35.66 45.718 35.862 45.696 36.031 45.655 C 36.199 45.61 36.347 45.568 36.471 45.521 C 36.593 45.475 36.702 45.431 36.794 45.387 C 36.889 45.348 36.969 45.326 37.036 45.326 C 37.104 45.326 37.158 45.35 37.196 45.399 C 37.233 45.452 37.255 45.551 37.255 45.691 C 37.255 45.81 37.242 45.945 37.222 46.089 C 37.201 46.235 37.172 46.377 37.139 46.517 C 37.104 46.659 37.063 46.788 37.011 46.9 C 36.961 47.01 36.905 47.099 36.845 47.165 C 36.777 47.233 36.676 47.297 36.54 47.362 C 36.406 47.424 36.247 47.485 36.068 47.536 C 35.889 47.589 35.7 47.628 35.502 47.656 C 35.301 47.685 35.105 47.699 34.911 47.699 C 34.434 47.699 34.024 47.642 33.673 47.529 C 33.324 47.416 33.032 47.241 32.795 47.002 C 32.556 46.764 32.381 46.464 32.266 46.103 C 32.153 45.743 32.094 45.311 32.094 44.803 C 32.094 44.694 32.098 44.569 32.107 44.433 C 32.116 44.295 32.13 44.152 32.152 44.005 L 32.216 43.554 C 32.237 43.403 32.261 43.266 32.285 43.133 L 33.57 36.025 L 31.981 36.025 C 31.885 36.025 31.813 35.995 31.763 35.935 C 31.712 35.874 31.687 35.754 31.687 35.576 C 31.687 35.444 31.699 35.294 31.725 35.119 C 31.752 34.945 31.79 34.783 31.84 34.633 C 31.891 34.484 31.957 34.358 32.036 34.256 C 32.117 34.151 32.215 34.099 32.323 34.099 L 33.928 34.099 L 34.477 31.093 C 34.485 31.029 34.514 30.969 34.559 30.911 C 34.605 30.857 34.672 30.808 34.758 30.765 C 34.842 30.724 34.956 30.694 35.094 30.673 C 35.234 30.653 35.405 30.645 35.611 30.645 C 35.815 30.645 35.983 30.653 36.113 30.673 C 36.245 30.694 36.347 30.724 36.417 30.765 C 36.491 30.808 36.538 30.857 36.558 30.911 C 36.581 30.969 36.586 31.029 36.578 31.093 L 36.031 34.099 L 38.96 34.099 C 39.088 34.099 39.173 34.151 39.214 34.256 C 39.256 34.358 39.279 34.473 39.279 34.608 Z M 46.038 40.661 L 48.536 46.842 C 48.584 46.971 48.606 47.083 48.594 47.171 C 48.58 47.26 48.527 47.334 48.434 47.389 C 48.339 47.446 48.211 47.485 48.046 47.507 C 47.879 47.532 47.664 47.545 47.4 47.545 C 47.163 47.545 46.976 47.536 46.84 47.522 C 46.705 47.507 46.599 47.485 46.522 47.451 C 46.446 47.418 46.396 47.377 46.369 47.328 C 46.342 47.274 46.319 47.216 46.293 47.151 L 44.382 42.164 L 40.778 47.151 C 40.728 47.216 40.674 47.274 40.618 47.328 C 40.564 47.377 40.483 47.417 40.381 47.446 C 40.283 47.475 40.15 47.497 39.994 47.514 C 39.836 47.534 39.632 47.545 39.375 47.545 C 39.132 47.545 38.931 47.532 38.778 47.507 C 38.625 47.485 38.512 47.446 38.44 47.389 C 38.368 47.334 38.338 47.264 38.35 47.178 C 38.365 47.093 38.413 46.987 38.498 46.854 L 43.261 40.619 L 40.906 34.719 C 40.855 34.587 40.833 34.478 40.841 34.39 C 40.851 34.299 40.894 34.227 40.977 34.17 C 41.055 34.114 41.177 34.079 41.339 34.058 C 41.498 34.039 41.711 34.029 41.976 34.029 C 42.214 34.029 42.4 34.035 42.537 34.052 C 42.672 34.066 42.777 34.087 42.848 34.114 C 42.919 34.144 42.97 34.182 43 34.227 C 43.031 34.274 43.056 34.331 43.085 34.395 L 44.904 39.115 L 48.344 34.395 C 48.394 34.338 48.446 34.29 48.497 34.24 C 48.549 34.195 48.62 34.154 48.714 34.122 C 48.808 34.091 48.924 34.066 49.064 34.052 C 49.204 34.035 49.389 34.029 49.617 34.029 C 49.872 34.029 50.08 34.039 50.241 34.058 C 50.405 34.079 50.524 34.111 50.599 34.156 C 50.675 34.204 50.709 34.273 50.694 34.361 C 50.684 34.448 50.62 34.559 50.509 34.689 L 46.038 40.661 Z M 59.354 34.608 C 59.354 34.691 59.349 34.782 59.342 34.882 C 59.335 34.979 59.316 35.079 59.292 35.184 C 59.264 35.287 59.232 35.389 59.188 35.491 C 59.146 35.596 59.102 35.687 59.055 35.766 C 59.008 35.845 58.955 35.909 58.898 35.957 C 58.838 36.001 58.769 36.025 58.693 36.025 L 55.764 36.025 L 54.477 43.077 C 54.441 43.274 54.412 43.495 54.387 43.737 C 54.359 43.982 54.347 44.183 54.347 44.342 C 54.347 44.818 54.439 45.168 54.623 45.387 C 54.806 45.607 55.098 45.718 55.507 45.718 C 55.739 45.718 55.936 45.696 56.106 45.655 C 56.275 45.61 56.422 45.568 56.546 45.521 C 56.67 45.475 56.776 45.431 56.869 45.387 C 56.964 45.348 57.045 45.326 57.113 45.326 C 57.18 45.326 57.234 45.35 57.27 45.399 C 57.31 45.452 57.33 45.551 57.33 45.691 C 57.33 45.81 57.318 45.945 57.299 46.089 C 57.275 46.235 57.25 46.377 57.213 46.517 C 57.18 46.659 57.137 46.788 57.088 46.9 C 57.036 47.01 56.982 47.099 56.923 47.165 C 56.855 47.233 56.751 47.297 56.617 47.362 C 56.48 47.424 56.323 47.485 56.144 47.536 C 55.965 47.589 55.776 47.628 55.577 47.656 C 55.378 47.685 55.181 47.699 54.984 47.699 C 54.51 47.699 54.098 47.642 53.75 47.529 C 53.403 47.416 53.108 47.241 52.87 47.002 C 52.633 46.764 52.456 46.464 52.342 46.103 C 52.227 45.743 52.171 45.311 52.171 44.803 C 52.171 44.694 52.174 44.569 52.181 44.433 C 52.19 44.295 52.206 44.152 52.227 44.005 L 52.292 43.554 C 52.311 43.403 52.335 43.266 52.361 43.133 L 53.648 36.025 L 52.054 36.025 C 51.962 36.025 51.89 35.995 51.838 35.935 C 51.788 35.874 51.763 35.754 51.763 35.576 C 51.763 35.444 51.778 35.294 51.801 35.119 C 51.826 34.945 51.864 34.783 51.916 34.633 C 51.966 34.484 52.031 34.358 52.112 34.256 C 52.195 34.151 52.288 34.099 52.399 34.099 L 54.006 34.099 L 54.55 31.093 C 54.561 31.029 54.587 30.969 54.634 30.911 C 54.682 30.857 54.748 30.808 54.832 30.765 C 54.915 30.724 55.029 30.694 55.17 30.673 C 55.31 30.653 55.482 30.645 55.686 30.645 C 55.889 30.645 56.057 30.653 56.188 30.673 C 56.32 30.694 56.422 30.724 56.495 30.765 C 56.565 30.808 56.613 30.857 56.636 30.911 C 56.655 30.969 56.661 31.029 56.654 31.093 L 56.106 34.099 L 59.036 34.099 C 59.164 34.099 59.248 34.151 59.292 34.256 C 59.335 34.358 59.354 34.473 59.354 34.608 Z M 72.108 51.644 C 72.108 51.972 72.075 52.213 72.007 52.363 C 71.938 52.513 71.833 52.588 71.689 52.588 L 59.422 52.588 C 59.277 52.588 59.167 52.517 59.091 52.375 C 59.012 52.236 58.975 52 58.975 51.673 C 58.975 51.356 59.012 51.116 59.091 50.956 C 59.167 50.8 59.277 50.72 59.422 50.72 L 71.689 50.72 C 71.824 50.72 71.928 50.796 72 50.944 C 72.074 51.093 72.108 51.328 72.108 51.644 Z"/>
          
        </svg>
      </g>
    </g>
    <g text-rendering="geometricPrecision" stroke-miterlimit="1.45" shape-rendering="geometricPrecision" font-family="'DejaVu Sans Light'" transform="matrix(3,0,0,3,-615,-237)" stroke-linecap="butt">
      <text x="329" xml:space="preserve" y="184.1543" clip-path="url(#clipPath2)" stroke="none">txt</text>
    </g>
    <g stroke-linecap="butt" transform="matrix(3,0,0,3,-615,-237)" fill="white" text-rendering="geometricPrecision" shape-rendering="geometricPrecision" stroke="white" stroke-miterlimit="1.45">
      <rect x="310" y="135" clip-path="url(#clipPath2)" fill="none" width="60" rx="4" ry="4" height="20"/>
    </g>
    <g fill="white" text-rendering="geometricPrecision" shape-rendering="geometricPrecision" transform="matrix(0.1346,0,0,0.135,312.1793,171)" stroke="white">
      <g clip-path="url(#clipPath12)">
        <svg opacity="1" writing-mode="lr-tb" shape-rendering="auto" stop-color="rgb(0, 0, 0)" glyph-orientation-horizontal="0deg" color-profile="auto" lighting-color="rgb(255, 255, 255)" color="rgb(0, 0, 0)" font-weight="400" alignment-baseline="auto" font-style="normal" color-interpolation-filters="linearrgb" text-anchor="start" stroke-linecap="butt" color-interpolation="srgb" font-variant="normal" word-spacing="normal" fill-opacity="1" text-rendering="auto" clip-path="none" text-decoration="none" letter-spacing="normal" viewBox="0 0 90 90" glyph-orientation-vertical="auto" display="inline" font-size-adjust="none" fill="rgb(0, 0, 0)" overflow="hidden" font-stretch="normal" stroke-dasharray="none" stroke-miterlimit="4" stop-opacity="1" color-rendering="auto" font-size="12" mask="none" direction="ltr" baseline-shift="baseline" pointer-events="visiblepainted" enable-background="accumulate" fill-rule="nonzero" image-rendering="auto" stroke-dashoffset="0" marker-end="none" clip="auto" cursor="auto" filter="none" stroke="none" visibility="visible" kerning="auto" stroke-width="1" font-family="&quot;Arial&quot;,&quot;Helvetica&quot;,sans-serif" flood-opacity="1" clip-rule="nonzero" src="none" unicode-bidi="normal" stroke-linejoin="miter" stroke-opacity="1" flood-color="rgb(0, 0, 0)" dominant-baseline="auto" marker-start="none" marker-mid="none">
            
          <style>
    #page {
      fill: #e9e9e0;
      stroke: none;
    }

    #page_stroke {
      fill: none;
      stroke: #888;
      stroke-width: 0.5;
    }

    #corner {
      fill: #d9d7ca;
    }

    #cartouche {
      fill: #f3d448;
    }
  </style>
            
          <path id="svg5.page" d="M 50,0 H 25 C 20,0 15,5 15,10 v 70 c 0,5 5,10 10,10 h 40 c 5,0 10,-5 10,-10 V 25 L 50,0 c 0,0 -1,-2 0,0.21 z"/>
            
          <path id="svg5.cartouche" d="M 65,90 H 25 C 20,90 15,85 15,80 V 65 h 60 v 15 c 0,5 -5,10 -10,10 z"/>
            
          <path id="svg5.corner" d="M50 0v25h25z"/>
            
          <path id="svg5.page_stroke" d="M 50,0 H 25 C 20,0 15,5 15,10 v 70 c 0,5 5,10 10,10 h 40 c 5,0 10,-5 10,-10 V 25 L 50,0 c 0,0 -1,-2 0,0.21 z"/>
            
          <!--
<rect x="0" y="0" width="800" height="800" rx="20" ry="20" fill="none" stroke="#000" stroke-width="1"/>
-->
            
          <g id="svg5.TEI" transform="translate(5, 40) scale(0.10  )">
                
            <path d="m199 281h146.5v44.2h-49.1v134.8h-48.2v-134.8h-49.2v-44.2z"/>
                
            <path d="m368 281h129.3v38.2h-80.9v28.5h75.1v36.5h-75.1v35.3h83.3v40.5h-131.7v-179z"/>
                
            <path d="m527 281h52.3v179h-52.3v-179z"/>
              
          </g>
            
          <g id="svg5.brackets" transform="translate(22, 16) scale(0.06)">
                
            <g id="svg5.gt">
                    
              <path fill="#c9b23e" d="m418 62 36 65 190.3 114.4-0.7 217.2 35.4 64.4v-269l-28.1-48.7z"/>
                    
              <path fill="#f3d448" d="m418 62 33-19 234 143-34 19z"/>
                    
              <path fill="#ffe14d" d="m713 237-28-51-34 19 28 49z"/>
                    
              <path fill="#e5c944" d="m713 504v-267l-34 17v269z"/>
                  
            </g>
                
            <g id="svg5.lt">
                    
              <path fill="#c9b23e" d="m86 243v269l29 50 233 142-36-64-190-116v-217z"/>
                    
              <path fill="#ffe14d" d="m119 224 36 66-33 17-36-64z"/>
                    
              <path fill="#e5c944" d="m155 506v-216l-33 17v217z"/>
                    
              <path fill="#f3d448" d="m345 620-190-114-33 18 190 116z"/>
                    
              <path fill="#ffe14d" d="m381 684-36-64-33 20 36 64z"/>
                  
            </g>
              
          </g>
            
          <!--
 <path d="m369.3 736.1 15.8-9v5.8l-5.3 3v17.9l-5.1 3v-17.9l-5.3 3z"/>
 <path d="m387.5 725.8 13.7-8.1v5.1l-8.6 5v3.8l8.1-4.7v4.9l-8.1 4.5 0.2 4.7 8.8-5.1v5.3l-14.1 8.3z"/>
 <path d="m414.8 710 5.6-3.2-5.3 14.5 5.9 8.8-5.9 3.4-3.4-5.7-3.1 9.4-5.9 3.4 5.9-15.6-5.5-8.4 5.8-3.2 3 5.6z"/>
 <path d="m421.3 706.2 15.8-9.2v5.8l-5.2 3.1v18l-5.3 2.8v-17.8l-5.3 3.2z"/>
 <path d="m447.3 691.2 13.7-7.9v4.9l-8.6 5.1v3.7l8-4.7v4.9l-8 4.7 0.1 4.7 8.9-5.3v5.5l-14.1 8.1z"/>
 <path d="m469.1 689.3v13l-4.9 2.8v-23.7l4.9-2.8 6.2 9.6v-13.2l4.9-2.8v23.7l-4.9 2.8z"/>
 <path d="m491.6 665.4c2.1-1.2 3.8-1.6 4.9-1.1 1.3 0.5 2.3 1.9 2.8 4l-4.7 4.1c0-0.6-0.2-1-0.3-1.3-0.4-0.4-0.8-0.6-1.2-0.7-0.3 0-0.9 0.1-1.3 0.4-1.1 0.6-2.1 1.8-2.6 3.5-0.6 1.3-0.8 3-0.8 5.1 0 2.6 0.2 4.2 0.8 4.9 0.5 0.6 1.5 0.7 2.4 0.1 1-0.6 1.7-1.4 2.3-2.5 0.5-1.1 0.7-2.4 1.1-4l4.5-0.7c-0.4 2-0.7 3.7-1.5 5.3-0.5 1.6-1.3 3-2.4 4.2-1 1.1-2.1 2.2-3.6 3-1.9 1.1-3.4 1.6-4.5 1.5s-2.1-0.8-3-2.3c-0.8-1.3-1.3-3.5-1.3-6.5 0-3.9 0.7-7.3 2.2-10.3 1.5-2.9 3.6-5.2 6.2-6.7z"/>
 <path d="m516.4 654.3c1.5 1.2 2.3 3.7 2.3 7.6 0 2.7-0.4 5.2-0.9 7.3-0.8 2.2-1.7 4.1-2.9 5.8-1.3 1.7-2.8 3.1-4.7 4.2-1.8 1.1-3.3 1.5-4.7 1.4-1.3-0.1-2.2-0.9-3-2.3-0.7-1.4-1.1-3.5-1.1-6.3 0-3.8 0.8-7.2 2.3-10.3 1.5-3 3.5-5.3 6.2-6.9 2.8-1.6 5-1.8 6.5-0.5zm-3.7 16.5c0.5-1.4 0.7-3.4 0.7-6 0-2.3-0.2-3.7-0.9-4.4-0.6-0.7-1.5-0.7-2.6 0-1 0.6-1.7 1.6-2.5 3-0.5 1.4-0.9 3.3-0.9 5.7s0.4 3.9 0.9 4.6c0.8 0.7 1.5 0.7 2.7 0.1 1.1-0.6 1.8-1.6 2.6-3"/>
 <path d="m536.6 647c0.2 1.3 0.3 2.8 0.3 4.4 0 2.5-0.1 4.6-0.5 6.2-0.4 1.7-1 3.2-1.7 4.5-0.8 1.4-1.5 2.5-2.3 3.3-1.1 1-2.2 1.9-3.2 2.4l-7.5 4.4-0.2-23.7 7.7-4.4c1.5-0.9 2.9-1.3 3.6-1.3 0.9 0.1 1.9 0.5 2.4 1.2 0.6 0.7 1 1.7 1.4 3zm-5.3 11.9c0.4-1 0.4-2.4 0.4-4.3 0-2.6-0.2-4.1-0.8-4.7-0.5-0.6-1.5-0.5-2.8 0.2l-1.3 0.8v13l1.3-0.8c0.9-0.6 1.7-1.2 2.3-1.8 0.3-0.6 0.7-1.4 0.9-2.4"/>
 <path d="m610.2 784.2 2.7-1.6 0.1 12.6-2.8 1.6z" transform="matrix(1.88 0 0 1.88 -607.4 -836.5)"/>
 <path d="m617.5 785.6 0.1 7-2.6 1.5-0.1-12.7 2.6-1.4 3.4 5-0.1-7 2.6-1.5 0.1 12.7-2.6 1.4z" transform="matrix(1.88 0 0 1.88 -607.4 -836.5)"/>
 <path d="m576.6 616.3c1.9-1.1 3.2-1.6 4.1-1.7 1 0 1.7 0.3 2.3 0.9 0.8 0.6 1.1 1.7 1.5 3l-5.1 4.1c-0.2-0.7-0.5-1.2-0.9-1.4-0.6-0.2-1.1 0-1.9 0.4-1.1 0.6-2.1 1.7-2.8 3.2-0.6 1.5-0.9 3.5-0.9 5.9 0 2.6 0.3 4.2 0.9 4.9 0.7 0.7 1.7 0.7 3 0 0.6-0.3 1.1-0.8 1.5-1.3 0.6-0.5 1.1-1.3 1.9-2.2v-2.3l-3.6 2v-4.9l8.1-4.6v10.1c-1.5 2.3-2.8 4.1-4 5.3-1.3 1.2-2.6 2.3-4.3 3.2-1.9 1.2-3.5 1.6-4.7 1.4-1.3-0.3-2.2-1.1-3-2.6-0.7-1.5-0.9-3.5-0.9-6-0.2-2.5 0.2-5 0.9-7.3 0.8-2.4 1.9-4.5 3.4-6.3 1.1-1.4 2.6-2.7 4.5-3.8z"/>
 <path d="m595.6 605.5 5.1-3 0.2 23.8-5.3 2.8z"/>
 <path d="m609.5 608.3v13l-4.9 2.8-0.2-23.7 4.9-2.8 6.4 9.4v-13l4.9-2.8v23.7l-4.9 2.8z"/>
 <path d="m624.2 588.9 5.1-2.8 0.2 23.7-5.3 3z"/>
 <path d="m631.9 584.6 15.8-9.2v6l-5.3 3v17.9l-5.2 3v-17.9l-5.3 3z"/>
 <path d="m650.1 574.1 5.3-3v23.6l-5.1 3.1z"/>
 <path d="m674.4 560 15.8-9.1v5.9l-5.3 3v17.8l-5.1 3v-17.8l-5.4 3z"/>
 <path d="m669.5 563.1 6.4 20-5.5 3.2-0.7-3.5-6 3.4-0.8 4.4-5.3 3.1 6.3-27.4 5.6-3.2zm-4.7 17.3 3.8-2.1-1.9-7.4-1.9 9.5"/>
 <path d="m692.8 549.4 5.1-3 0.2 23.7-5.3 3z"/>
 <path d="m706.3 565.2-6.3-19.9 5.4-3.2 4 14.9 3.5-19.2 5.3-3-6.2 27.2z"/>
 <path d="m719.9 533.8 13.9-8.1v5.1l-8.7 5.1v3.8l7.9-4.7v4.8l-7.9 4.6v4.7l8.9-5.1v5.4l-14.1 8.1z"/>
 -->
          
        </svg>
      </g>
    </g>
    <g text-rendering="geometricPrecision" stroke-miterlimit="1.45" shape-rendering="geometricPrecision" font-family="'DejaVu Sans Light'" transform="matrix(3,0,0,3,-615,-237)" stroke-linecap="butt">
      <text x="329" xml:space="preserve" y="149.1543" clip-path="url(#clipPath2)" stroke="none">tei</text>
    </g>
    <g stroke-linecap="butt" font-size="48px" transform="matrix(3,0,0,3,-615,-237)" fill="rgb(136,136,136)" text-rendering="geometricPrecision" font-family="'Garamond'" shape-rendering="geometricPrecision" font-style="italic" stroke="rgb(136,136,136)" stroke-miterlimit="1.45">
      <text x="216.8633" xml:space="preserve" y="128.1413" clip-path="url(#clipPath2)" stroke="none">Teinte</text>
    </g>
    <g stroke-linecap="butt" transform="matrix(3,0,0,3,-615,-237)" fill="white" text-rendering="geometricPrecision" shape-rendering="geometricPrecision" stroke="white" stroke-width="3" stroke-miterlimit="1.45">
      <path fill="none" d="M440 135.0074 L440 156.0192" clip-path="url(#clipPath2)"/>
      <path d="M440 130.0074 L432.5 140.0074 L440 136.2574 L447.5 140.0074 Z" clip-path="url(#clipPath2)" stroke="none"/>
      <path d="M440 161.0192 L447.5 151.0192 L440 154.7692 L432.5 151.0192 Z" clip-path="url(#clipPath2)" stroke="none"/>
      <path fill="none" d="M370.0158 179.2099 L405.6409 179.2099" clip-path="url(#clipPath2)"/>
      <path d="M410.6409 179.2099 L400.6409 171.7099 L404.3909 179.2099 L400.6409 186.7099 Z" clip-path="url(#clipPath2)" stroke="none"/>
      <path fill="none" d="M275.0249 145 L304.9929 145" clip-path="url(#clipPath2)"/>
      <path d="M270.0249 145 L280.0249 152.5 L276.2749 145 L280.0249 137.5 Z" clip-path="url(#clipPath2)" stroke="none"/>
      <path d="M309.9929 145 L299.9929 137.5 L303.7429 145 L299.9929 152.5 Z" clip-path="url(#clipPath2)" stroke="none"/>
      <path fill="none" d="M375.0293 145 L382.5146 145 L385.7895 144.375 L388.1287 142.5 L389.5322 139.375 L390 135 L390 135 L390.4697 130.625 L391.8789 127.5 L394.2275 125.625 L397.5156 125 L405.0312 125" clip-path="url(#clipPath2)"/>
      <path d="M370.0293 145 L380.0293 152.5 L376.2793 145 L380.0293 137.5 Z" clip-path="url(#clipPath2)" stroke="none"/>
      <path d="M410.0312 125 L400.0312 117.5 L403.7812 125 L400.0312 132.5 Z" clip-path="url(#clipPath2)" stroke="none"/>
      <path fill="none" d="M374.9812 145.4588 L382.4906 145.4588 L385.776 146.022 L388.1227 147.7116 L389.5307 150.5276 L390 154.47 L390 154.47 L390.4774 158.4124 L391.9097 161.2285 L394.2968 162.918 L397.6387 163.4812 L405.2775 163.4812" clip-path="url(#clipPath2)"/>
      <path d="M369.9812 145.4588 L379.9812 152.9588 L376.2312 145.4588 L379.9812 137.9588 Z" clip-path="url(#clipPath2)" stroke="none"/>
      <path d="M410.2775 163.4812 L400.2775 155.9812 L404.0275 163.4812 L400.2775 170.9812 Z" clip-path="url(#clipPath2)" stroke="none"/>
      <path fill="none" d="M340 155.0146 L340 164.9961" clip-path="url(#clipPath2)"/>
      <path d="M340 169.9961 L347.5 159.9961 L340 163.7461 L332.5 159.9961 Z" clip-path="url(#clipPath2)" stroke="none"/>
    </g>
  </g>
</svg>
